<?xml version="1.0" encoding="UTF-8"?>
<svg width="813px" height="821px" viewBox="0 0 813 821" version="1.1" xmlns="http://www.w3.org/2000/svg" xmlns:xlink="http://www.w3.org/1999/xlink">
    <title>03173711-A8EB-4F58-AFE9-316BC977A256@1x</title>
    <defs>
        <linearGradient x1="0.313757145%" y1="44.3420684%" x2="99.6864495%" y2="50.000122%" id="linearGradient-1">
            <stop stop-color="#FFFFFF" offset="5.72389812%"></stop>
            <stop stop-color="#DCFFF6" offset="100%"></stop>
        </linearGradient>
        <path d="M406.497875,0 C181.9933,0 0,183.787097 0,410.5 C0,637.212903 181.9933,821 406.497875,821 C631.002449,821 813,637.212903 813,410.5 C813,183.787097 631.002449,0 406.497875,0 Z" id="path-2"></path>
    </defs>
    <g id="design" stroke="none" stroke-width="1" fill="none" fill-rule="evenodd">
        <g id="4-0-0-landing-page-desktop" transform="translate(-970.000000, -1223.000000)">
            <g id="Background" transform="translate(-610.000000, -421.000000)">
                <g id="Bubble2" transform="translate(1986.500000, 2054.500000) scale(-1, 1) translate(-1986.500000, -2054.500000) translate(1580.000000, 1644.000000)">
                    <mask id="mask-3" fill="white">
                        <use xlink:href="#path-2"></use>
                    </mask>
                    <use id="Mask" fill="url(#linearGradient-1)" fill-rule="nonzero" opacity="0.378487723" transform="translate(406.500000, 410.500000) scale(-1, 1) rotate(-180.000000) translate(-406.500000, -410.500000) " xlink:href="#path-2"></use>
                    <g id="Group-10" opacity="0.086004" mask="url(#mask-3)">
                        <g transform="translate(-741.405382, -41.750599)" id="Group">
                            <g transform="translate(993.307213, 664.282260)" opacity="0.777832031">
                                <g id="logo/bamboo/dark-copy" transform="translate(114.000000, 126.000000) scale(-1, 1) rotate(-9.000000) translate(-114.000000, -126.000000) " fill="#0CCD9D" fill-rule="nonzero">
                                    <path d="M228,240.909646 C212.364583,245.163028 196.018466,247.28972 179.316998,247.28972 C136.319602,247.28972 94.743608,231.693983 62.0513731,203.692547 C54.2336648,196.958025 47.1266572,189.514605 40.7303504,181.716737 C40.375,181.716737 40.375,181.362288 40.375,181.00784 L40.7303504,181.00784 C109.668324,161.513169 183.225852,185.261222 228,240.909646 Z M9.55817915,11.7757009 C29.7485101,41.2070146 40.375,76.3118345 40.375,111.771249 C40.375,131.273926 37.187053,150.776604 30.811159,169.570093 C-0.714094469,123.118261 -8.50685377,64.964822 9.55817915,11.7757009 Z M211.375,7.06542056 C194.275,110.381969 125.875,160.814454 40.375,169.570093 C54.26875,79.9123429 113.05,18.9730906 211.375,7.06542056 Z" id="Combined-Shape"></path>
                                </g>
                            </g>
                            <g transform="translate(993.568989, 104.373263)" opacity="0.777832031">
                                <g id="logo/bamboo/dark-copy-2" transform="translate(114.000000, 126.000000) rotate(-155.000000) translate(-114.000000, -126.000000) " fill="#0CCD9D" fill-rule="nonzero">
                                    <path d="M228,240.909646 C212.364583,245.163028 196.018466,247.28972 179.316998,247.28972 C136.319602,247.28972 94.743608,231.693983 62.0513731,203.692547 C54.2336648,196.958025 47.1266572,189.514605 40.7303504,181.716737 C40.375,181.716737 40.375,181.362288 40.375,181.00784 L40.7303504,181.00784 C109.668324,161.513169 183.225852,185.261222 228,240.909646 Z M9.55817915,11.7757009 C29.7485101,41.2070146 40.375,76.3118345 40.375,111.771249 C40.375,131.273926 37.187053,150.776604 30.811159,169.570093 C-0.714094469,123.118261 -8.50685377,64.964822 9.55817915,11.7757009 Z M211.375,7.06542056 C194.275,110.381969 125.875,160.814454 40.375,169.570093 C54.26875,79.9123429 113.05,18.9730906 211.375,7.06542056 Z" id="Combined-Shape"></path>
                                </g>
                            </g>
                            <g transform="translate(1291.000000, 326.000000)" opacity="0.777832031">
                                <g id="logo/bamboo/dark-copy-5" transform="translate(86.500000, 95.500000) rotate(-360.000000) translate(-86.500000, -95.500000) " fill="#0CCD9D" fill-rule="nonzero">
                                    <path d="M173,182.594216 C161.136285,185.81801 148.73331,187.429907 136.060705,187.429907 C103.435488,187.429907 71.8887902,175.609329 47.0828401,154.386018 C41.1509825,149.281677 35.7583846,143.640038 30.9050466,137.729749 C30.6354167,137.729749 30.6354167,137.461099 30.6354167,137.19245 L30.9050466,137.19245 C83.2132457,122.416727 139.026634,140.416244 173,182.594216 Z M7.25247804,8.92523364 C22.5723344,31.2323007 30.6354167,57.8395254 30.6354167,84.7155098 C30.6354167,99.4973013 28.216492,114.279093 23.3786426,128.523364 C-0.541834839,93.3158248 -6.45476185,49.2392103 7.25247804,8.92523364 Z M160.385417,5.35514019 C147.410417,83.6625242 95.5104167,121.887146 30.6354167,128.523364 C41.1776042,60.5684821 85.7791667,14.380398 160.385417,5.35514019 Z" id="Combined-Shape"></path>
                                </g>
                            </g>
                            <g transform="translate(1241.889115, 119.080355)" opacity="0.777832031">
                                <g id="logo/bamboo/dark-copy-9" transform="translate(77.000000, 85.000000) scale(-1, 1) rotate(-262.000000) translate(-77.000000, -85.000000) " fill="#0CCD9D" fill-rule="nonzero">
                                    <path d="M154,162.518412 C143.439236,165.387757 132.398437,166.82243 121.117622,166.82243 C92.0755208,166.82243 63.9934896,156.301497 41.9118924,137.411639 C36.6315104,132.868509 31.8311632,127.847154 27.5108507,122.586688 C27.2708333,122.586688 27.2708333,122.347575 27.2708333,122.108463 L27.5108507,122.108463 C74.0742187,108.957297 123.757812,124.977809 154,162.518412 Z M6.45596311,7.94392523 C20.0932919,27.7983829 27.2708333,51.4802058 27.2708333,75.4012391 C27.2708333,88.5578074 25.1175709,101.714376 20.811046,114.392523 C-0.482326966,83.0559698 -5.74585737,43.8254752 6.45596311,7.94392523 Z M142.770833,4.76635514 C131.220833,74.4640267 85.0208333,108.485941 27.2708333,114.392523 C36.6552083,53.9091202 76.3583333,12.7993071 142.770833,4.76635514 Z" id="Combined-Shape"></path>
                                </g>
                            </g>
                            <g transform="translate(1406.551094, 25.750599)" opacity="0.777832031">
                                <g id="logo/bamboo/dark-copy-12" transform="translate(97.000000, 107.000000) scale(-1, 1) rotate(-341.000000) translate(-97.000000, -107.000000) " fill="#0CCD9D" fill-rule="nonzero">
                                    <path d="M194,204.582001 C180.696181,208.194 166.787642,210 152.576744,210 C115.991241,210 80.6151752,196.756002 52.7980982,172.977004 C46.1461884,167.258005 40.0989978,160.937006 34.6565262,154.315007 C34.3541667,154.315007 34.3541667,154.014007 34.3541667,153.713007 L34.6565262,153.713007 C93.3142756,137.158009 155.902699,157.325006 194,204.582001 Z M8.13283664,10 C25.3123287,34.9932584 34.3541667,64.8044944 34.3541667,94.9168539 C34.3541667,111.478652 31.6416153,128.040449 26.2165125,144 C-0.607606698,104.552809 -7.23828785,55.1685393 8.13283664,10 Z M179.854167,6 C165.304167,93.737069 107.104167,136.564655 34.3541667,144 C46.1760417,67.862069 96.1916667,16.112069 179.854167,6 Z" id="Combined-Shape"></path>
                                </g>
                            </g>
                            <g transform="translate(1490.583659, 300.077849)" opacity="0.777832031">
                                <g id="logo/bamboo/dark-copy-13" transform="translate(97.000000, 107.000000) scale(-1, 1) rotate(-193.000000) translate(-97.000000, -107.000000) " fill="#0CCD9D" fill-rule="nonzero">
                                    <path d="M194,204.582001 C180.696181,208.194 166.787642,210 152.576744,210 C115.991241,210 80.6151752,196.756002 52.7980982,172.977004 C46.1461884,167.258005 40.0989978,160.937006 34.6565262,154.315007 C34.3541667,154.315007 34.3541667,154.014007 34.3541667,153.713007 L34.6565262,153.713007 C93.3142756,137.158009 155.902699,157.325006 194,204.582001 Z M8.13283664,10 C25.3123287,34.9932584 34.3541667,64.8044944 34.3541667,94.9168539 C34.3541667,111.478652 31.6416153,128.040449 26.2165125,144 C-0.607606698,104.552809 -7.23828785,55.1685393 8.13283664,10 Z M179.854167,6 C165.304167,93.737069 107.104167,136.564655 34.3541667,144 C46.1760417,67.862069 96.1916667,16.112069 179.854167,6 Z" id="Combined-Shape"></path>
                                </g>
                            </g>
                            <g transform="translate(1333.726896, 533.119201)" opacity="0.777832031">
                                <g id="logo/bamboo/dark-copy-4" transform="translate(114.000000, 126.000000) rotate(-210.000000) translate(-114.000000, -126.000000) " fill="#0CCD9D" fill-rule="nonzero">
                                    <path d="M228,240.909646 C212.364583,245.163028 196.018466,247.28972 179.316998,247.28972 C136.319602,247.28972 94.743608,231.693983 62.0513731,203.692547 C54.2336648,196.958025 47.1266572,189.514605 40.7303504,181.716737 C40.375,181.716737 40.375,181.362288 40.375,181.00784 L40.7303504,181.00784 C109.668324,161.513169 183.225852,185.261222 228,240.909646 Z M9.55817915,11.7757009 C29.7485101,41.2070146 40.375,76.3118345 40.375,111.771249 C40.375,131.273926 37.187053,150.776604 30.811159,169.570093 C-0.714094469,123.118261 -8.50685377,64.964822 9.55817915,11.7757009 Z M211.375,7.06542056 C194.275,110.381969 125.875,160.814454 40.375,169.570093 C54.26875,79.9123429 113.05,18.9730906 211.375,7.06542056 Z" id="Combined-Shape"></path>
                                </g>
                            </g>
                            <g transform="translate(1036.478339, 416.728855)" opacity="0.777832031">
                                <g id="logo/bamboo/dark-copy-8" transform="translate(95.000000, 104.500000) rotate(292.000000) translate(-95.000000, -104.500000) " fill="#0CCD9D" fill-rule="nonzero">
                                    <path d="M190,199.802047 C176.970486,203.329654 163.348722,205.093458 149.430832,205.093458 C113.599669,205.093458 78.9530066,192.158899 51.7094776,168.935486 C45.1947206,163.350108 39.2722143,157.176795 33.9419586,150.709516 C33.6458333,150.709516 33.6458333,150.415549 33.6458333,150.121581 L33.9419586,150.121581 C91.3902699,133.953382 152.68821,153.649188 190,199.802047 Z M7.96514929,9.76635514 C24.790425,34.1756589 33.6458333,63.2903707 33.6458333,92.6991704 C33.6458333,108.87401 30.9892108,125.04885 25.6759659,140.635514 C-0.595078724,102.109986 -7.0890448,53.8795548 7.96514929,9.76635514 Z M176.145833,5.85981308 C161.895833,91.5469505 104.895833,133.373892 33.6458333,140.635514 C45.2239583,66.2765066 94.2083333,15.7356188 176.145833,5.85981308 Z" id="Combined-Shape"></path>
                                </g>
                            </g>
                            <g transform="translate(786.000000, 371.000000)" opacity="0.451892671">
                                <g id="logo/bamboo/dark-copy-10" fill="#0CCD9D" fill-rule="nonzero">
                                    <path d="M110,116.63086 C102.456597,118.690038 94.5703125,119.719626 86.5125868,119.719626 C65.7682292,119.719626 45.7096354,112.169309 29.937066,98.6130586 C26.1653646,95.3526945 22.7365451,91.7491342 19.6506076,87.9739757 C19.4791667,87.9739757 19.4791667,87.8023776 19.4791667,87.6307795 L19.6506076,87.6307795 C52.9101562,78.1928835 88.3984375,89.6899569 110,116.63086 Z M4.61140222,5.70093458 C14.3523513,19.9494277 19.4791667,36.9446183 19.4791667,54.1114775 C19.4791667,63.55325 17.9411221,72.9950226 14.8650329,82.0934579 C-0.344519261,59.6048724 -4.10418383,31.4512234 4.61140222,5.70093458 Z M101.979167,3.42056075 C93.7291667,53.4388898 60.7291667,77.8546165 19.4791667,82.0934579 C26.1822917,38.6877216 54.5416667,9.18538511 101.979167,3.42056075 Z" id="Combined-Shape"></path>
                                </g>
                            </g>
                            <g transform="translate(734.023702, 58.585880)" opacity="0.635044643">
                                <g id="logo/bamboo/dark-copy-6" transform="translate(67.000000, 74.000000) scale(1, -1) rotate(-30.000000) translate(-67.000000, -74.000000) " fill="#0CCD9D" fill-rule="nonzero">
                                    <path d="M134,141.486617 C124.810764,143.984636 115.203835,145.233645 105.38806,145.233645 C80.117661,145.233645 55.6826468,136.074244 36.4687895,119.628956 C31.8741714,115.673761 27.6972459,111.302228 23.9380129,106.722528 C23.7291667,106.722528 23.7291667,106.51436 23.7291667,106.306192 L23.9380129,106.306192 C64.4541903,94.8569406 107.685369,108.80421 134,141.486617 Z M5.61752634,6.91588785 C17.4837735,24.2009451 23.7291667,44.8180615 23.7291667,65.6434317 C23.7291667,77.0973853 21.8555487,88.5513389 18.1083128,99.588785 C-0.4196871,72.3075501 -4.99964213,38.1539431 5.61752634,6.91588785 Z M124.229167,4.14953271 C114.179167,64.8275056 73.9791667,94.446584 23.7291667,99.588785 C31.8947917,46.9326458 66.4416667,11.1429262 124.229167,4.14953271 Z" id="Combined-Shape"></path>
                                </g>
                            </g>
                            <g transform="translate(773.819387, 631.869640)" opacity="0.635044643">
                                <g id="logo/bamboo/dark-copy-14" transform="translate(67.000000, 74.000000) scale(-1, -1) rotate(-285.000000) translate(-67.000000, -74.000000) " fill="#0CCD9D" fill-rule="nonzero">
                                    <path d="M134,141.486617 C124.810764,143.984636 115.203835,145.233645 105.38806,145.233645 C80.117661,145.233645 55.6826468,136.074244 36.4687895,119.628956 C31.8741714,115.673761 27.6972459,111.302228 23.9380129,106.722528 C23.7291667,106.722528 23.7291667,106.51436 23.7291667,106.306192 L23.9380129,106.306192 C64.4541903,94.8569406 107.685369,108.80421 134,141.486617 Z M5.61752634,6.91588785 C17.4837735,24.2009451 23.7291667,44.8180615 23.7291667,65.6434317 C23.7291667,77.0973853 21.8555487,88.5513389 18.1083128,99.588785 C-0.4196871,72.3075501 -4.99964213,38.1539431 5.61752634,6.91588785 Z M124.229167,4.14953271 C114.179167,64.8275056 73.9791667,94.446584 23.7291667,99.588785 C31.8947917,46.9326458 66.4416667,11.1429262 124.229167,4.14953271 Z" id="Combined-Shape"></path>
                                </g>
                            </g>
                            <g transform="translate(736.193622, 761.607217)" opacity="0.635044643">
                                <g id="logo/bamboo/dark-copy-7" transform="translate(78.500000, 87.000000) scale(-1, 1) rotate(-386.000000) translate(-78.500000, -87.000000) " fill="#0CCD9D" fill-rule="nonzero">
                                    <path d="M157,166.342374 C146.233507,169.279234 134.977628,170.747664 123.477056,170.747664 C93.8691998,170.747664 65.240116,159.979179 42.7283578,140.644854 C37.3451113,135.994827 32.4512508,130.855323 28.0467764,125.47108 C27.8020833,125.47108 27.8020833,125.226342 27.8020833,124.981604 L28.0467764,124.981604 C75.517223,111.520998 126.168679,127.918463 157,166.342374 Z M6.58172862,8.13084112 C20.4847196,28.4524625 27.8020833,52.6915048 27.8020833,77.1753859 C27.8020833,90.6415205 25.6068742,104.107655 21.216456,117.084112 C-0.491722946,85.0102279 -5.85778965,44.8566628 6.58172862,8.13084112 Z M145.552083,4.87850467 C133.777083,76.2161215 86.6770833,111.038551 27.8020833,117.084112 C37.3692708,55.1775701 77.8458333,13.1004673 145.552083,4.87850467 Z" id="Combined-Shape"></path>
                                </g>
                            </g>
                        </g>
                    </g>
                </g>
            </g>
        </g>
    </g>
</svg>