<svg xmlns="http://www.w3.org/2000/svg" xmlns:xlink="http://www.w3.org/1999/xlink" width="670" height="518" viewBox="0 0 670 518">
  <defs>
    <linearGradient id="img-a" x1="29.078%" x2="89.764%" y1="50%" y2="50%">
      <stop offset="0%" stop-color="#F2F3F6"/>
      <stop offset="100%" stop-color="#E0E4EA"/>
    </linearGradient>
    <linearGradient id="img-b" x1="71.87%" x2="26.076%" y1="-3.256%" y2="99.545%">
      <stop offset="0%" stop-color="#FFF"/>
      <stop offset="100%" stop-color="#DCFFF6"/>
    </linearGradient>
    <linearGradient id="img-c" x1="100%" x2="5.724%" y1="50%" y2="44.742%">
      <stop offset="0%" stop-color="#FFF"/>
      <stop offset="100%" stop-color="#DCFFF6"/>
    </linearGradient>
    <path id="img-d" d="M615.018495,324.640562 C615.018495,329.494936 618.965226,333.444551 623.816054,333.444551 L623.816054,333.444551 C628.666882,333.444551 632.613613,329.494936 632.613613,324.640562 L632.613613,324.640562 C632.613613,319.784014 628.666882,315.836574 623.816054,315.836574 L623.816054,315.836574 C618.965226,315.836574 615.018495,319.784014 615.018495,324.640562 L615.018495,324.640562 Z"/>
    <linearGradient id="img-e" x1="50%" x2="50%" y1="0%" y2="100%">
      <stop offset="0%" stop-color="#B1CDFF"/>
      <stop offset="5.737%" stop-color="#AECBFE"/>
      <stop offset="100%" stop-color="#81A7EC"/>
    </linearGradient>
    <linearGradient id="img-f" x1="31.804%" x2="66.164%" y1="98.366%" y2="18.547%">
      <stop offset="0%" stop-color="#D3E8FA"/>
      <stop offset="59.28%" stop-color="#E5F3FF"/>
      <stop offset="100%" stop-color="#F2F9FF"/>
    </linearGradient>
    <linearGradient id="img-g" x1="50%" x2="50%" y1="0%" y2="100%">
      <stop offset="0%" stop-color="#FDFDFD"/>
      <stop offset="100%" stop-color="#FAFAFA"/>
    </linearGradient>
    <linearGradient id="img-h" x1="95.759%" x2="36.276%" y1="50%" y2="50%">
      <stop offset="0%" stop-color="#FFA095"/>
      <stop offset="100%" stop-color="#FF675C"/>
    </linearGradient>
    <linearGradient id="img-i" x1="100%" x2="50%" y1="-21.589%" y2="96.115%">
      <stop offset="0%" stop-color="#FEDB54"/>
      <stop offset="100%" stop-color="#FCB52A"/>
    </linearGradient>
  </defs>
  <g fill="none" fill-rule="evenodd">
    <rect width="670" height="518"/>
    <g transform="translate(1.93 .459)">
      <ellipse cx="238.766" cy="506.667" fill="url(#img-a)" fill-rule="nonzero" rx="124.965" ry="10.874"/>
      <ellipse cx="256.153" cy="243.504" fill="url(#img-b)" rx="205.378" ry="204.44"/>
      <ellipse cx="501.737" cy="191.306" fill="url(#img-c)" rx="138.005" ry="137.019"/>
      <path fill="#0CCD9D" d="M118.521464,313.420261 C116.537232,314.570783 115.856986,317.126288 117.006667,319.12067 L117.006667,319.12067 L123.817821,330.923844 L112.062387,337.716052 C111.09961,338.270651 110.408498,339.164534 110.119448,340.241109 L110.119448,340.241109 C109.828224,341.319858 109.976009,342.448631 110.536723,343.42081 L110.536723,343.42081 C111.684231,345.415192 114.23787,346.108985 116.230796,344.956289 L116.230796,344.956289 L127.99275,338.161906 L134.803903,349.96508 C135.362444,350.935084 136.264368,351.628877 137.344503,351.918138 L137.344503,351.918138 C137.700926,352.013834 138.066042,352.059507 138.426811,352.059507 L138.426811,352.059507 C139.146177,352.059507 139.854676,351.87464 140.491456,351.504908 L140.491456,351.504908 C141.454232,350.950309 142.143171,350.056425 142.432222,348.982026 L142.432222,348.982026 C142.721272,347.901101 142.573487,346.772329 142.012773,345.800149 L142.012773,345.800149 L135.203792,333.994801 L146.96792,327.200418 C147.935043,326.639294 148.621809,325.734536 148.906512,324.653612 L148.906512,324.653612 C149.186869,323.579212 149.036911,322.459139 148.482717,321.502184 L148.482717,321.502184 C147.924176,320.532179 147.022253,319.840562 145.942117,319.5513 L145.942117,319.5513 C144.868502,319.259864 143.747074,319.412107 142.790818,319.964531 L142.790818,319.964531 L131.028864,326.761088 L124.215537,314.949215 C123.441838,313.616002 122.035707,312.867837 120.592629,312.867837 L120.592629,312.867837 C119.888476,312.867837 119.175631,313.046179 118.521464,313.420261 L118.521464,313.420261 Z"/>
      <path fill="#EC6D64" d="M659.903868,158.110765 C659.184502,158.308681 658.580322,158.76976 658.208686,159.417879 L658.208686,159.417879 L653.455657,167.65422 L645.266625,162.92599 C644.618978,162.547558 643.862666,162.447513 643.141127,162.645429 L643.141127,162.645429 C642.410895,162.838994 641.804542,163.306598 641.428559,163.956892 L641.428559,163.956892 C641.052576,164.613712 640.952604,165.374926 641.148202,166.103517 L641.148202,166.103517 C641.341627,166.827758 641.804542,167.430205 642.450015,167.802113 L642.450015,167.802113 L650.639047,172.532517 L645.888191,180.768857 C645.514382,181.414802 645.41441,182.169492 645.603488,182.891558 L645.603488,182.891558 C645.792566,183.624499 646.259827,184.23347 646.913994,184.607553 L646.913994,184.607553 C647.344309,184.859841 647.822437,184.985985 648.304912,184.985985 L648.304912,184.985985 C648.552669,184.985985 648.804773,184.953362 649.052531,184.88159 L649.052531,184.88159 C649.77407,184.685849 650.376077,184.218246 650.747713,183.572301 L650.747713,183.572301 L655.496395,175.342486 L663.687601,180.07289 C665.03288,180.844979 666.751968,180.37955 667.523493,179.035463 L667.523493,179.035463 C667.760384,178.626582 667.890782,178.174203 667.903822,177.7153 L667.903822,177.7153 L667.903822,177.541308 C667.897302,177.325993 667.866876,177.108503 667.808197,176.893188 L667.808197,176.893188 C667.614772,176.168947 667.149684,175.564325 666.50421,175.192418 L666.50421,175.192418 L658.313005,170.462013 L663.061687,162.230023 C663.442017,161.577553 663.544162,160.816339 663.348564,160.087748 L663.348564,160.087748 C663.15514,159.363507 662.690051,158.758885 662.044578,158.386977 L662.044578,158.386977 C661.616436,158.136864 661.140481,158.00637 660.65366,158.00637 L660.65366,158.00637 C660.403729,158.00637 660.151625,158.043343 659.903868,158.110765 L659.903868,158.110765 Z"/>
      <path fill="#FECB8F" d="M527.494952,387.738715 C526.536522,388.297664 525.85193,389.193722 525.565053,390.265947 L525.565053,390.265947 L522.039944,403.434957 L508.915324,399.915972 C506.702895,399.317875 504.414399,400.655437 503.816739,402.873833 L503.816739,402.873833 C503.729807,403.202243 503.684167,403.530653 503.675474,403.854713 L503.675474,403.854713 L503.675474,404.050454 C503.71894,405.855619 504.93382,407.495493 506.759401,407.98702 L506.759401,407.98702 L519.8775,411.506005 L516.352391,424.67284 C516.063341,425.75159 516.211126,426.878187 516.774014,427.848192 L516.774014,427.848192 C517.328208,428.809497 518.225785,429.496765 519.2994,429.786027 L519.2994,429.786027 C519.651476,429.881722 520.014419,429.927395 520.375188,429.927395 L520.375188,429.927395 C521.092381,429.927395 521.805226,429.740354 522.448526,429.370621 L522.448526,429.370621 C523.413476,428.809497 524.104588,427.904739 524.395812,426.828165 L524.395812,426.828165 L527.918748,413.66133 L541.047714,417.180315 C543.262317,417.776237 545.548639,416.44085 546.139779,414.222453 L546.139779,414.222453 C546.431003,413.143704 546.283218,412.012757 545.724677,411.042752 L545.724677,411.042752 C545.166136,410.079272 544.268559,409.389829 543.201464,409.109267 L543.201464,409.109267 L530.081191,405.590282 L533.6063,392.421272 C534.20396,390.202875 532.882588,387.906183 530.670158,387.31026 L530.670158,387.31026 C530.311562,387.214565 529.946446,387.166717 529.583503,387.166717 L529.583503,387.166717 C528.857618,387.166717 528.140425,387.360283 527.494952,387.738715 L527.494952,387.738715 Z"/>
      <path fill="#0CCD9D" d="M433.877448,4.17580497 L433.877448,11.8727705 L426.21001,11.8727705 C423.914995,11.8727705 422.045948,13.745358 422.045948,16.0485754 L422.045948,16.0485754 C422.045948,18.3539678 423.914995,20.2265553 426.21001,20.2265553 L426.21001,20.2265553 L433.875275,20.2265553 L433.875275,27.919171 C433.875275,30.2267382 435.742148,32.1015007 438.039337,32.1015007 L438.039337,32.1015007 C440.334352,32.1015007 442.205572,30.2267382 442.205572,27.9235208 L442.205572,27.9235208 L442.205572,20.2309051 L449.870837,20.2309051 C452.165852,20.2309051 454.032725,18.3561427 454.032725,16.0507503 L454.032725,16.0507503 C454.032725,13.745358 452.165852,11.8727705 449.870837,11.8727705 L449.870837,11.8727705 L442.205572,11.8727705 L442.205572,4.17580497 C442.205572,1.87476244 440.334352,0 438.039337,0 L438.039337,0 C435.744321,0 433.877448,1.87476244 433.877448,4.17580497 L433.877448,4.17580497 Z"/>
      <path fill="#FCB52A" d="M57.2949732,127.714654 C57.2949732,135.024254 63.2381081,140.968216 70.5410296,140.968216 L70.5410296,140.968216 C77.8455874,140.968216 83.7854496,135.024254 83.7854496,127.714654 L83.7854496,127.714654 C83.7854496,120.406691 77.8455874,114.462729 70.5410296,114.462729 L70.5410296,114.462729 C63.2381081,114.462729 57.2949732,120.406691 57.2949732,127.714654 L57.2949732,127.714654 Z"/>
      <path fill="#B1CDFF" d="M0,263.184458 C0,268.038831 3.94673108,271.986272 8.79755914,271.986272 L8.79755914,271.986272 C13.6483872,271.986272 17.5951183,268.038831 17.5951183,263.184458 L17.5951183,263.184458 C17.5951183,258.330085 13.6483872,254.378294 8.79755914,254.378294 L8.79755914,254.378294 C3.94673108,254.378294 0,258.330085 0,263.184458 L0,263.184458 Z"/>
      <use fill="#3D83FF" xlink:href="#img-d"/>
      <g transform="translate(186.52 63.987)">
        <path fill="url(#img-e)" d="M96.6307666,432.732203 L239.409916,432.297223 C256.594778,432.244621 268.562302,418.598398 266.220566,401.820321 L212.079554,31.8508796 C209.75804,15.2225167 194.099957,1.69161382 177.026317,1.62282634 L35.13088,1.04824852 C8.01082943,6.39344073 -1.47946939,15.9670401 0.876421963,33.034429 L53.2419212,400.630702 C55.6180348,417.845782 64.3317995,427.66823 96.6307666,432.732203"/>
        <path fill="url(#img-f)" d="M16.3466404,31.1965893 L69.3066735,402.141194 C71.7030094,419.485756 88.4065824,433.514357 106.525712,433.46794 L106.525712,433.46794 L250.158241,433.111748 C267.454325,433.069261 279.50476,419.386621 277.152913,402.551896 L277.152913,402.551896 L222.694412,30.9639257 C220.362787,14.2809375 204.611682,0.7156408 187.430864,0.656969122 L187.430864,0.656969122 L44.72047,0.177479889 C44.6820478,0.177479889 44.6416033,0.177479889 44.603181,0.177479889 L44.603181,0.177479889 C26.65594,0.177479889 13.9745712,14.0381581 16.3466404,31.1965893"/>
        <g transform="translate(12.133 24.278)">
          <path fill="#C2DCF5" d="M146.107114,378.56833 C147.354826,387.557236 155.929057,394.84264 165.233312,394.838595 C174.513299,394.834547 181.008684,387.577467 179.765016,378.633071 C178.519326,369.688675 170.003739,362.405294 160.719707,362.366686 C151.411408,362.326391 144.859401,369.579424 146.107114,378.56833"/>
          <path fill="#D8EBFC" d="M123.097639,0.769052259 C124.986396,0.769052259 126.723487,2.24798318 126.976265,4.07085153 C127.231065,5.89574305 125.904486,7.37467397 124.015729,7.37872029 L124.015729,7.37872029 L73.5187646,7.43941719 C71.5996737,7.44143829 69.8362941,5.95239156 69.5814938,4.11333792 C69.3266936,2.27428428 70.6775394,0.783214388 72.5946081,0.783214388 L72.5946081,0.783214388 Z M139.019824,0.767027019 C140.900493,0.765005936 142.631517,2.23989054 142.888339,4.05871257 C143.145162,5.87955776 141.828694,7.35646552 139.948025,7.35849076 C138.065334,7.36051184 136.332288,5.88562724 136.075466,4.06478205 C135.818643,2.24393686 137.137133,0.767027019 139.019824,0.767027019 Z"/>
          <path fill="url(#img-g)" d="M69.5428693,345.772683 L243.664474,346.913891 C247.502656,346.938024 250.186147,343.923513 249.664413,340.180665 L203.863054,30.0826366 C203.343343,26.3681125 199.84085,23.3677642 196.033002,23.3818764 L23.2763987,24.0070832 C19.2663279,24.0212453 16.4412805,27.1267979 16.9670588,30.9445034 L61.2598385,338.758383 C61.7916835,342.606435 65.5024651,345.746382 69.5428693,345.772683"/>
          <line x1="55.622" x2="133.478" y1="129.494" y2="129.494" stroke="#C2DCF5" stroke-linecap="round" stroke-width="10.106"/>
          <line x1="59.667" x2="137.522" y1="152.76" y2="152.76" stroke="#C2DCF5" stroke-linecap="round" stroke-width="10.106"/>
          <g fill-rule="nonzero" transform="translate(61.689 207.386)">
            <path fill="#D45950" d="M7.63756359,28.3242585 L132.922516,28.3242585 C135.154966,28.3242585 136.964724,26.5145005 136.964724,24.2820509 C136.964724,24.0628695 136.946897,23.8440512 136.911419,23.6277601 L134.022519,6.01549785 C133.70204,4.0616906 132.013532,2.62758113 130.033616,2.62758113 L7.19697473,2.62758113 L7.19697473,2.62758113 L5.55854313,2.62758113 C3.32609353,2.62758113 1.51633556,4.4373391 1.51633556,6.6697887 C1.51633556,6.82815427 1.52564222,6.986383 1.54420742,7.14365662 L3.62322788,24.7559188 C3.86344897,26.7909334 5.58841979,28.3242585 7.63756359,28.3242585 Z"/>
            <path fill="url(#img-h)" d="M9.65978792,26.3010972 L134.94474,26.3010972 C137.17719,26.3010972 138.986948,24.4913392 138.986948,22.2588896 C138.986948,22.0397082 138.969121,21.8208898 138.933643,21.6045988 L136.044743,3.99233653 C135.724264,2.03852928 134.035757,0.604419812 132.05584,0.604419812 L7.58076746,0.604419812 C5.34831787,0.604419812 3.5385599,2.41417778 3.5385599,4.64662738 C3.5385599,4.80499295 3.54786656,4.96322168 3.56643176,5.1204953 L5.64545222,22.7327575 C5.88567331,24.7677721 7.61064412,26.3010972 9.65978792,26.3010972 Z"/>
          </g>
          <path fill="#D8EBFB" d="M7.48949999,90.9405431 C9.08907944,90.7625049 10.5551921,91.9237995 10.7634812,93.5322127 L10.7634812,93.5322127 L13.3357506,113.458329 C13.5440397,115.066742 12.4095718,116.489024 10.8059479,116.634692 L10.8059479,116.634692 L10.6351415,116.645053 C9.1035368,116.693407 7.73693358,115.539656 7.53803338,113.996489 L7.53803338,113.996489 L4.97789736,94.1593927 C4.77163048,92.557049 5.89396499,91.1165581 7.48949999,90.9405431 Z M3.22503331,57.9013071 C4.81854609,57.6828057 6.28061428,58.8097065 6.48890339,60.4160966 L6.48890339,60.4160966 L9.05915052,80.3320967 C9.26743963,81.9405099 8.13701622,83.3951629 6.539459,83.5812938 L6.539459,83.5812938 L6.36930234,83.5961671 C4.84354016,83.6847666 3.48257802,82.5611147 3.28367781,81.0179484 L3.28367781,81.0179484 L0.723541803,61.1909674 C0.517274921,59.5906468 1.63556498,58.1177854 3.22503331,57.9013071 Z"/>
        </g>
        <path fill="#FC962A" d="M366.889118,27.4618335 L263.041832,54.9505263 C261.098474,55.4826178 261.444275,67.6236088 263.009476,68.8516678 L263.009476,68.8516678 L294.129487,92.1787178 L222.322323,183.257394 C221.20201,184.683723 218.957341,184.436897 218.213163,182.773859 L218.213163,182.773859 L207.55604,159.9789 C206.732995,158.200541 204.249704,158.05285 203.289147,159.707796 L203.289147,159.707796 L141.29786,243.786335 C139.762992,246.282916 145.002575,249.212453 147.022777,247.029462 L147.022777,247.029462 L194.636049,202.90836 C195.732095,201.73695 197.649163,201.906895 198.472209,203.238135 L198.472209,203.238135 L215.412382,225.670948 C216.217227,226.882822 217.895673,227.145833 219.024075,226.225294 L219.024075,226.225294 L340.078468,130.015881 L370.9821,151.018318 C372.607969,152.238285 375.916328,150.561084 375.870302,148.485321 L375.870302,148.485321 L372.506857,33.1165694 C372.470457,31.61943 368.785965,27.4274397 367.127741,27.4274397 L367.127741,27.4274397 C367.042807,27.4274397 366.961918,27.4375555 366.889118,27.4618335 L366.889118,27.4618335 Z"/>
        <path fill="url(#img-i)" d="M366.074162,27.6075011 L264.234944,54.1554239 C262.366409,54.6672837 261.927586,57.0991236 263.434143,58.2806499 L263.434143,58.2806499 L289.61386,77.909361 L220.571076,165.481899 C219.493231,166.853602 217.335517,166.616892 216.621672,165.018595 L216.621672,165.018595 L206.371017,143.097642 C205.580327,141.390094 203.19208,141.246449 202.267924,142.838677 L202.267924,142.838677 L141.178549,243.118691 C139.702325,245.518161 142.976306,248.026881 144.919664,245.922793 L144.919664,245.922793 L196.704785,189.873132 C197.756341,188.750277 199.60061,188.910107 200.3913,190.192791 L200.3913,190.192791 L214.85627,212.722716 C215.62876,213.888057 217.242495,214.142975 218.328429,213.254807 L218.328429,213.254807 L338.503155,114.506326 L364.480649,133.979254 C366.045851,135.152687 368.252097,134.046018 368.209631,132.045112 L368.209631,132.045112 L369.056943,29.7904921 C369.028632,28.5078079 367.946742,27.5083662 366.733407,27.5083662 L366.733407,27.5083662 C366.517029,27.5083662 366.294584,27.5387136 366.074162,27.6075011 L366.074162,27.6075011 Z"/>
        <g fill-rule="nonzero" stroke="#C2DCF5" stroke-linecap="round" stroke-width="10.106" transform="translate(85.667 300.228)">
          <line x1="4.333" x2="130.722" y1="23.49" y2="23.49"/>
          <line x1=".289" x2="108.478" y1="1.235" y2="1.235"/>
          <line x1="6.356" x2="143.867" y1="44.733" y2="44.733"/>
        </g>
      </g>
      <g fill-rule="nonzero" transform="translate(239.07 160.541)">
        <path fill="#FC962A" d="M8.76561763,20.3524781 L7.60847154,14.1435871 L11.718001,14.1435871 L17.1359962,20.3524781 L20.591318,20.3524781 L19.4351574,14.1435871 L20.9410741,14.1433888 L20.5949146,12.28438 L19.0891086,12.2851732 L18.6874158,10.1279298 L20.1933695,10.1279298 L19.8472099,8.26892103 L18.341367,8.26951592 L17.0466442,1.31622822 L13.0647091,1.31622822 L14.3586683,8.26951592 L10.7738057,8.26951592 L4.73128593,1.31622822 L1.22976997,1.31622822 L2.52439427,8.26951592 L1,8.26892103 L1.34615955,10.1279298 L2.87044305,10.1279298 L3.27213582,12.2851732 L1.74770463,12.28438 L2.09386418,14.1433888 L3.6181846,14.1435871 L4.77444376,20.3524781 L8.76561763,20.3524781 Z M10.0960577,12.2851732 L7.26242276,12.2851732 L6.86072999,10.1279298 L8.21467413,10.1279298 L10.0960577,12.2851732 Z M15.1064098,12.2851732 L14.2641243,12.2851732 L12.3892449,10.1279298 L14.704717,10.1279298 L15.1064098,12.2851732 Z M31.0888952,20.6127393 C32.5055156,20.6127393 33.7169955,20.3710682 34.723335,19.8877259 C35.7296745,19.4043836 36.4669617,18.7413371 36.9351968,17.8985865 C37.4034319,17.0558358 37.5335066,16.0922496 37.3255111,15.0078278 C37.1111919,13.8242589 36.5655848,12.8374351 35.6885995,12.0473564 C34.8116143,11.2572776 33.6603989,10.7723862 32.2349533,10.592682 L32.2072605,10.4439613 C33.2308764,10.2518637 34.0073951,9.79950493 34.5368166,9.0868849 C35.0662381,8.37426487 35.2286369,7.485039 35.0240129,6.4192073 C34.8432459,5.41534257 34.4050273,4.50907579 33.709357,3.70040697 C33.0136868,2.89173816 32.1317699,2.24883096 31.0636065,1.77168537 C29.9954431,1.29453978 28.8084841,1.05596699 27.5027297,1.05596699 C26.2092938,1.05596699 25.0939561,1.29299061 24.1567169,1.76703785 C23.2194776,2.24108509 22.5269421,2.89638568 22.0791105,3.73293963 C21.6312788,4.56949357 21.5002412,5.53617814 21.6859977,6.63299331 L25.5201115,6.63299331 C25.4485877,6.14965103 25.5148665,5.72827571 25.7189479,5.36886735 C25.9230294,5.00945898 26.2317082,4.73215684 26.6449845,4.53696092 C27.0582607,4.341765 27.5359044,4.24416704 28.0779157,4.24416704 C28.6137677,4.24416704 29.102447,4.34641252 29.5439534,4.55090349 C29.9854597,4.75539445 30.3523692,5.03889329 30.6446818,5.4014 C30.9369944,5.76390671 31.1275746,6.18373286 31.2164222,6.66087845 C31.3098853,7.16281081 31.2621776,7.60122705 31.0732993,7.97612715 C30.8844209,8.35102726 30.5770869,8.64382114 30.1512973,8.8545088 C29.7255077,9.06519646 29.2108112,9.17054029 28.6072077,9.17054029 L26.8425915,9.17054029 L27.3929852,12.1263642 L29.1576014,12.1263642 C29.8720708,12.1263642 30.5103021,12.2379048 31.0722952,12.4609858 C31.6342884,12.6840669 32.0920424,12.9923525 32.4455573,13.3858427 C32.7990722,13.7793329 33.0231381,14.2301425 33.117755,14.7382716 C33.2112181,15.2402039 33.1612963,15.6832677 32.9679895,16.0674628 C32.7746827,16.451658 32.4641717,16.7521977 32.0364563,16.9690821 C31.6087409,17.1859665 31.0900019,17.2944086 30.4802393,17.2944086 C29.8951135,17.2944086 29.3506153,17.1983598 28.8467449,17.0062623 C28.3428744,16.8141647 27.9182203,16.5430593 27.5727824,16.1929459 C27.2273446,15.8428326 26.9990373,15.4353999 26.8878605,14.9706477 L22.8597313,14.9706477 C23.0847509,16.0798562 23.5855127,17.057385 24.3620168,17.903234 C25.1385209,18.749083 26.108877,19.4121295 27.2730853,19.8923734 C28.4372935,20.3726173 29.7092302,20.6127393 31.0888952,20.6127393 Z M47.9589959,20.6127393 C49.1292475,20.6127393 50.1441118,20.3819124 51.003589,19.9202585 C51.8630661,19.4586047 52.5459808,18.784714 53.0523329,17.8985865 C53.5586851,17.012459 53.8740356,15.9357831 53.9983845,14.6685587 C54.1227334,13.4013344 54.037408,11.9590535 53.7424084,10.3417158 C53.4120131,8.60044427 52.9278823,7.13337651 52.2900159,5.94051255 C51.6521496,4.74764858 50.9100204,3.78870989 50.0636284,3.06369647 C49.2172364,2.33868305 48.3125887,1.81351307 47.3496852,1.48818653 C46.3867817,1.16286 45.418733,1.00009678 44.4455764,1.00009678 C43.03398,0.994000033 41.8500177,1.2759497 40.893708,1.84604572 C39.9373984,2.41614174 39.2567756,3.20157295 38.8518398,4.20233934 C38.4469041,5.20310573 38.3675177,6.3479453 38.6135696,7.63685805 C38.8290638,8.82662367 39.2755347,9.88470949 39.9530935,10.8111155 C40.6306522,11.7375216 41.4573153,12.4640842 42.4330825,12.9908033 C43.4088497,13.5175225 44.4541427,13.780882 45.5689613,13.780882 C46.264953,13.780882 46.902257,13.6724399 47.4808732,13.4555555 C48.0594895,13.2386712 48.551795,12.9303855 48.9577897,12.5306986 C49.3637845,12.1310118 49.65652,11.652317 49.8359962,11.0946144 L49.9653398,11.0946144 C50.3099556,12.9784099 50.2626588,14.4609694 49.8234495,15.5422929 C49.3842402,16.6236163 48.5487137,17.164278 47.3168699,17.164278 C46.5900821,17.164278 45.944838,16.9737296 45.3811378,16.5926328 C44.8174376,16.211536 44.3939808,15.6739727 44.1107674,14.9799427 L40.1657877,14.9799427 C40.4874369,16.0457744 41.0216924,17.0047131 41.7685543,17.8567588 C42.5154162,18.7088045 43.4182119,19.381146 44.4769416,19.8737833 C45.5356712,20.3664206 46.696356,20.6127393 47.9589959,20.6127393 Z M46.2727326,10.8622383 C45.6568107,10.8622383 45.081236,10.7150667 44.5460083,10.4207237 C44.0107806,10.1263806 43.5593926,9.72824292 43.1918443,9.22631055 C42.824296,8.72437818 42.5847543,8.15738051 42.4732193,7.52531753 C42.3493658,6.89325454 42.3802528,6.32315852 42.5658803,5.81502945 C42.7515079,5.30690039 43.0583782,4.90411515 43.4864914,4.60667375 C43.9146045,4.30923235 44.4397017,4.16051164 45.0617828,4.16051164 C45.6715454,4.16051164 46.2476972,4.31078152 46.7902379,4.61132127 C47.3327787,4.91186102 47.7899399,5.31619543 48.1617217,5.8243245 C48.5335035,6.33245356 48.7795904,6.89325454 48.8999822,7.50672744 C48.9803629,7.97147963 48.9751929,8.40679752 48.8844721,8.8126811 C48.7937514,9.21856468 48.6306677,9.5748747 48.3952212,9.88161115 C48.1597746,10.1883476 47.8626502,10.4284696 47.503848,10.601977 C47.1450459,10.7754845 46.7346741,10.8622383 46.2727326,10.8622383 Z M62.7388531,20.3524781 L67.6685398,4.65314897 L67.0471835,1.31622822 L53.770987,1.31622822 L54.3836895,4.60667375 L63.5208907,4.60667375 L63.5451219,4.73680436 L58.6090968,20.3524781 L62.7388531,20.3524781 Z M73.4158877,25 C73.4933232,24.6220015 73.5919538,24.1014791 73.7117793,23.4384326 C73.8316049,22.7753862 73.9280568,22.0364302 74.001135,21.2215647 C74.0742132,20.4066992 74.0746322,19.5902845 74.0023918,18.7723206 L73.9136312,17.7498658 L70.6615636,17.7498658 L70.8092188,18.7909107 C70.9291891,19.6336613 70.9939215,20.4609202 71.0034158,21.2726874 C71.0129101,22.0844546 70.9984538,22.8172139 70.9600468,23.4709653 C70.9435867,23.7511445 70.9284212,24.0048612 70.9145503,24.2321156 L70.8768213,24.8344913 L70.8659711,25 L73.4158877,25 Z M84.3045468,20.6127393 C85.7273264,20.6127393 86.9479476,20.378814 87.9664106,19.9109635 C88.9848736,19.4431129 89.7326471,18.8033041 90.2097311,17.9915369 C90.6868151,17.1797698 90.8326659,16.2595604 90.6472835,15.2309089 C90.4934295,14.4377318 90.1712455,13.7080709 89.6807315,13.0419261 C89.1902174,12.3757813 88.594209,11.821177 87.8927061,11.3781132 C87.1912033,10.9350495 86.4501212,10.6515506 85.66946,10.5276167 L85.6452288,10.3974861 C86.5987855,10.1929951 87.3200701,9.70035779 87.8090827,8.91957411 C88.2980952,8.13879042 88.4481795,7.22477777 88.2593355,6.17753616 C88.0708656,5.19845821 87.6183988,4.32317491 86.9019353,3.55168627 C86.1854717,2.78019763 85.2852642,2.17137226 84.2013128,1.72521015 C83.1173615,1.27904804 81.9379066,1.05596699 80.6629483,1.05596699 C79.38799,1.05596699 78.291325,1.27749887 77.3729533,1.72056263 C76.4545815,2.16362639 75.7808201,2.77090259 75.351669,3.54239123 C74.9225178,4.31387987 74.7996745,5.19226151 74.9831391,6.17753616 C75.1769884,7.21858108 75.6610152,8.13104455 76.4352195,8.91492658 C77.2094238,9.69880862 78.1206207,10.1929951 79.1688101,10.3974861 L79.1930413,10.5276167 C78.4462162,10.6515506 77.8030138,10.9350495 77.2634341,11.3781132 C76.7238543,11.821177 76.3359275,12.3757813 76.0996537,13.0419261 C75.8633799,13.7080709 75.8190904,14.4377318 75.9667851,15.2309089 C76.1583268,16.2595604 76.6437959,17.1797698 77.4231926,17.9915369 C78.2025892,18.8033041 79.1886359,19.4431129 80.3813325,19.9109635 C81.5740291,20.378814 82.8817672,20.6127393 84.3045468,20.6127393 Z M82.1704732,9.1519502 C81.6407803,9.1519502 81.1494074,9.04350802 80.6963545,8.82662367 C80.2433015,8.60973931 79.8639801,8.30919956 79.5583901,7.92500441 C79.2528002,7.54080926 79.0532736,7.09774551 78.9598106,6.59581314 C78.8675014,6.10007747 78.9019277,5.66475958 79.0630895,5.28985947 C79.2242514,4.91495937 79.491262,4.62061632 79.8641213,4.40683031 C80.2369806,4.1930443 80.6913363,4.08615129 81.2271884,4.08615129 C81.7691996,4.08615129 82.2633637,4.1930443 82.7096805,4.40683031 C83.1559973,4.62061632 83.5310853,4.91495937 83.8349444,5.28985947 C84.1388036,5.66475958 84.3368878,6.10007747 84.429197,6.59581314 C84.5226601,7.09774551 84.4881363,7.54080926 84.3256256,7.92500441 C84.1631149,8.30919956 83.8957184,8.60973931 83.523436,8.82662367 C83.1511536,9.04350802 82.700166,9.1519502 82.1704732,9.1519502 Z M83.7541531,17.6569153 C83.1259128,17.6569153 82.5499481,17.5407273 82.0262591,17.3083512 C81.5025701,17.0759751 81.0699363,16.7537469 80.7283579,16.3416666 C80.3867794,15.9295864 80.1657971,15.4539899 80.0654108,14.9148774 C79.9627168,14.3633715 80.0088925,13.8753817 80.203938,13.450908 C80.3989835,13.0264343 80.7139269,12.6918127 81.1487683,12.4470433 C81.5836097,12.2022738 82.1059118,12.079889 82.7156744,12.079889 C83.3315963,12.079889 83.8994761,12.2022738 84.4193136,12.4470433 C84.9391511,12.6918127 85.3771722,13.0264343 85.7333768,13.450908 C86.0895814,13.8753817 86.3190307,14.3633715 86.4217247,14.9148774 C86.522111,15.4539899 86.4767071,15.9295864 86.2855131,16.3416666 C86.0943192,16.7537469 85.7832272,17.0759751 85.3522373,17.3083512 C84.9212474,17.5407273 84.3885526,17.6569153 83.7541531,17.6569153 Z M107.879769,20.3524781 L107.267066,17.0620325 L99.3216738,17.0620325 L99.2974427,16.9319019 L101.552729,14.2084541 C102.630782,13.0186885 103.447715,11.9977828 104.003528,11.1457371 C104.559341,10.2936914 104.912176,9.51755526 105.062034,8.81732862 C105.211891,8.11710198 105.219896,7.4075803 105.086048,6.68876358 C104.881813,5.5919484 104.420412,4.61906714 103.701844,3.7701198 C102.983275,2.92117246 102.075763,2.25657683 100.979306,1.77633289 C99.8828489,1.29608896 98.6571064,1.05596699 97.3020783,1.05596699 C95.9840054,1.05596699 94.8666446,1.30693318 93.9499957,1.80886555 C93.0333469,2.31079791 92.3801641,3.0203196 91.9904472,3.93743059 C91.6007303,4.85454159 91.5218353,5.93586502 91.7537622,7.1814009 L95.5509207,7.1814009 C95.4378419,6.5741247 95.4573654,6.0505039 95.6094913,5.61053849 C95.7616172,5.17057308 96.0313294,4.83285315 96.4186279,4.59737871 C96.8059263,4.36190426 97.2890588,4.24416704 97.8680254,4.24416704 C98.4223551,4.24416704 98.9386533,4.35415839 99.4169201,4.5741411 C99.8951868,4.7941238 100.298373,5.10705695 100.626479,5.51294053 C100.954586,5.91882411 101.170563,6.40061722 101.27441,6.95831985 C101.367874,7.46025222 101.353075,7.92655359 101.230014,8.35722395 C101.106954,8.78789432 100.891407,9.22631055 100.583375,9.67247266 C100.275343,10.1186348 99.8868472,10.6205671 99.4178877,11.1782698 L93.8510703,17.4524244 L94.3910792,20.3524781 L107.879769,20.3524781 Z M114.442373,1.31622822 L108.874559,13.8366523 L109.464761,17.0062623 L118.546,17.0064606 L119.169617,20.3524781 L122.994492,20.3524781 L122.370432,17.0064606 L124.718067,17.0062623 L124.11748,13.780882 L121.769923,13.7815017 L119.449818,1.31622822 L115.698854,1.31622822 L114.442373,1.31622822 Z M116.515193,5.70438125 L118.019205,13.7815017 L112.892304,13.780882 L112.864611,13.6321613 L116.367969,5.70348893 L116.515193,5.70438125 Z M130.042525,20.5941492 C130.442874,20.5941492 130.790597,20.4934529 131.085694,20.2920603 C131.380791,20.0906677 131.600064,19.8211114 131.743512,19.4833915 C131.88696,19.1456715 131.920607,18.7723206 131.844452,18.3633387 C131.731373,17.7560625 131.412717,17.23554 130.888482,16.8017713 C130.364248,16.3680026 129.806488,16.1511182 129.215203,16.1511182 C128.605441,16.1511182 128.123832,16.3680026 127.770378,16.8017713 C127.416923,17.23554 127.296736,17.7560625 127.409814,18.3633387 C127.524047,18.9768116 127.838949,19.5019816 128.354522,19.9388486 C128.870094,20.3757157 129.432762,20.5941492 130.042525,20.5941492 Z M141.268894,20.3524781 L137.724221,1.31622822 L133.964018,1.31622822 L129.835518,4.2999373 L130.500144,7.86923415 L134.3243,5.13649125 L134.435166,5.13649125 L137.268482,20.3524781 L141.268894,20.3524781 Z M154,20.3524781 L150.455326,1.31622822 L146.695123,1.31622822 L142.566623,4.2999373 L143.231249,7.86923415 L147.055405,5.13649125 L147.166271,5.13649125 L149.999587,20.3524781 L154,20.3524781 Z"/>
        <path fill="#FDC43B" d="M7.76561763,19.3524781 L6.60847154,13.1435871 L10.718001,13.1435871 L16.1359962,19.3524781 L19.591318,19.3524781 L18.4351574,13.1435871 L19.9410741,13.1433888 L19.5949146,11.28438 L18.0891086,11.2851732 L17.6874158,9.12792981 L19.1933695,9.12792981 L18.8472099,7.26892103 L17.341367,7.26951592 L16.0466442,0.31622822 L12.0647091,0.31622822 L13.3586683,7.26951592 L9.77380574,7.26951592 L3.73128593,0.31622822 L0.229769966,0.31622822 L1.52439427,7.26951592 L0,7.26892103 L0.346159551,9.12792981 L1.87044305,9.12792981 L2.27213582,11.2851732 L0.747704629,11.28438 L1.09386418,13.1433888 L2.6181846,13.1435871 L3.77444376,19.3524781 L7.76561763,19.3524781 Z M9.09605766,11.2851732 L6.26242276,11.2851732 L5.86072999,9.12792981 L7.21467413,9.12792981 L9.09605766,11.2851732 Z M14.1064098,11.2851732 L13.2641243,11.2851732 L11.3892449,9.12792981 L13.704717,9.12792981 L14.1064098,11.2851732 Z M30.0888952,19.6127393 C31.5055156,19.6127393 32.7169955,19.3710682 33.723335,18.8877259 C34.7296745,18.4043836 35.4669617,17.7413371 35.9351968,16.8985865 C36.4034319,16.0558358 36.5335066,15.0922496 36.3255111,14.0078278 C36.1111919,12.8242589 35.5655848,11.8374351 34.6885995,11.0473564 C33.8116143,10.2572776 32.6603989,9.77238618 31.2349533,9.592682 L31.2072605,9.4439613 C32.2308764,9.25186373 33.0073951,8.79950493 33.5368166,8.0868849 C34.0662381,7.37426487 34.2286369,6.485039 34.0240129,5.4192073 C33.8432459,4.41534257 33.4050273,3.50907579 32.709357,2.70040697 C32.0136868,1.89173816 31.1317699,1.24883096 30.0636065,0.77168537 C28.9954431,0.294539785 27.8084841,0.055966992 26.5027297,0.055966992 C25.2092938,0.055966992 24.0939561,0.292990611 23.1567169,0.767037848 C22.2194776,1.24108509 21.5269421,1.89638568 21.0791105,2.73293963 C20.6312788,3.56949357 20.5002412,4.53617814 20.6859977,5.63299331 L24.5201115,5.63299331 C24.4485877,5.14965103 24.5148665,4.72827571 24.7189479,4.36886735 C24.9230294,4.00945898 25.2317082,3.73215684 25.6449845,3.53696092 C26.0582607,3.341765 26.5359044,3.24416704 27.0779157,3.24416704 C27.6137677,3.24416704 28.102447,3.34641252 28.5439534,3.55090349 C28.9854597,3.75539445 29.3523692,4.03889329 29.6446818,4.4014 C29.9369944,4.76390671 30.1275746,5.18373286 30.2164222,5.66087845 C30.3098853,6.16281081 30.2621776,6.60122705 30.0732993,6.97612715 C29.8844209,7.35102726 29.5770869,7.64382114 29.1512973,7.8545088 C28.7255077,8.06519646 28.2108112,8.17054029 27.6072077,8.17054029 L25.8425915,8.17054029 L26.3929852,11.1263642 L28.1576014,11.1263642 C28.8720708,11.1263642 29.5103021,11.2379048 30.0722952,11.4609858 C30.6342884,11.6840669 31.0920424,11.9923525 31.4455573,12.3858427 C31.7990722,12.7793329 32.0231381,13.2301425 32.117755,13.7382716 C32.2112181,14.2402039 32.1612963,14.6832677 31.9679895,15.0674628 C31.7746827,15.451658 31.4641717,15.7521977 31.0364563,15.9690821 C30.6087409,16.1859665 30.0900019,16.2944086 29.4802393,16.2944086 C28.8951135,16.2944086 28.3506153,16.1983598 27.8467449,16.0062623 C27.3428744,15.8141647 26.9182203,15.5430593 26.5727824,15.1929459 C26.2273446,14.8428326 25.9990373,14.4353999 25.8878605,13.9706477 L21.8597313,13.9706477 C22.0847509,15.0798562 22.5855127,16.057385 23.3620168,16.903234 C24.1385209,17.749083 25.108877,18.4121295 26.2730853,18.8923734 C27.4372935,19.3726173 28.7092302,19.6127393 30.0888952,19.6127393 Z M46.9589959,19.6127393 C48.1292475,19.6127393 49.1441118,19.3819124 50.003589,18.9202585 C50.8630661,18.4586047 51.5459808,17.784714 52.0523329,16.8985865 C52.5586851,16.012459 52.8740356,14.9357831 52.9983845,13.6685587 C53.1227334,12.4013344 53.037408,10.9590535 52.7424084,9.34171582 C52.4120131,7.60044427 51.9278823,6.13337651 51.2900159,4.94051255 C50.6521496,3.74764858 49.9100204,2.78870989 49.0636284,2.06369647 C48.2172364,1.33868305 47.3125887,0.813513067 46.3496852,0.488186532 C45.3867817,0.162859996 44.418733,9.67820732e-05 43.4455764,9.67820732e-05 C42.03398,-0.00599996713 40.8500177,0.275949697 39.893708,0.846045721 C38.9373984,1.41614174 38.2567756,2.20157295 37.8518398,3.20233934 C37.4469041,4.20310573 37.3675177,5.3479453 37.6135696,6.63685805 C37.8290638,7.82662367 38.2755347,8.88470949 38.9530935,9.81111553 C39.6306522,10.7375216 40.4573153,11.4640842 41.4330825,11.9908033 C42.4088497,12.5175225 43.4541427,12.780882 44.5689613,12.780882 C45.264953,12.780882 45.902257,12.6724399 46.4808732,12.4555555 C47.0594895,12.2386712 47.551795,11.9303855 47.9577897,11.5306986 C48.3637845,11.1310118 48.65652,10.652317 48.8359962,10.0946144 L48.9653398,10.0946144 C49.3099556,11.9784099 49.2626588,13.4609694 48.8234495,14.5422929 C48.3842402,15.6236163 47.5487137,16.164278 46.3168699,16.164278 C45.5900821,16.164278 44.944838,15.9737296 44.3811378,15.5926328 C43.8174376,15.211536 43.3939808,14.6739727 43.1107674,13.9799427 L39.1657877,13.9799427 C39.4874369,15.0457744 40.0216924,16.0047131 40.7685543,16.8567588 C41.5154162,17.7088045 42.4182119,18.381146 43.4769416,18.8737833 C44.5356712,19.3664206 45.696356,19.6127393 46.9589959,19.6127393 Z M45.2727326,9.86223827 C44.6568107,9.86223827 44.081236,9.71506675 43.5460083,9.42072369 C43.0107806,9.12638063 42.5593926,8.72824292 42.1918443,8.22631055 C41.824296,7.72437818 41.5847543,7.15738051 41.4732193,6.52531753 C41.3493658,5.89325454 41.3802528,5.32315852 41.5658803,4.81502945 C41.7515079,4.30690039 42.0583782,3.90411515 42.4864914,3.60667375 C42.9146045,3.30923235 43.4397017,3.16051164 44.0617828,3.16051164 C44.6715454,3.16051164 45.2476972,3.31078152 45.7902379,3.61132127 C46.3327787,3.91186102 46.7899399,4.31619543 47.1617217,4.8243245 C47.5335035,5.33245356 47.7795904,5.89325454 47.8999822,6.50672744 C47.9803629,6.97147963 47.9751929,7.40679752 47.8844721,7.8126811 C47.7937514,8.21856468 47.6306677,8.5748747 47.3952212,8.88161115 C47.1597746,9.18834759 46.8626502,9.42846956 46.503848,9.60197705 C46.1450459,9.77548453 45.7346741,9.86223827 45.2727326,9.86223827 Z M61.7388531,19.3524781 L66.6685398,3.65314897 L66.0471835,0.31622822 L52.770987,0.31622822 L53.3836895,3.60667375 L62.5208907,3.60667375 L62.5451219,3.73680436 L57.6090968,19.3524781 L61.7388531,19.3524781 Z M72.4158877,24 C72.4933232,23.6220015 72.5919538,23.1014791 72.7117793,22.4384326 C72.8316049,21.7753862 72.9280568,21.0364302 73.001135,20.2215647 C73.0742132,19.4066992 73.0746322,18.5902845 73.0023918,17.7723206 L72.9136312,16.7498658 L69.6615636,16.7498658 L69.8092188,17.7909107 C69.9291891,18.6336613 69.9939215,19.4609202 70.0034158,20.2726874 C70.0129101,21.0844546 69.9984538,21.8172139 69.9600468,22.4709653 C69.9435867,22.7511445 69.9284212,23.0048612 69.9145503,23.2321156 L69.8768213,23.8344913 L69.8659711,24 L72.4158877,24 Z M83.3045468,19.6127393 C84.7273264,19.6127393 85.9479476,19.378814 86.9664106,18.9109635 C87.9848736,18.4431129 88.7326471,17.8033041 89.2097311,16.9915369 C89.6868151,16.1797698 89.8326659,15.2595604 89.6472835,14.2309089 C89.4934295,13.4377318 89.1712455,12.7080709 88.6807315,12.0419261 C88.1902174,11.3757813 87.594209,10.821177 86.8927061,10.3781132 C86.1912033,9.93504945 85.4501212,9.65155061 84.66946,9.5276167 L84.6452288,9.39748608 C85.5987855,9.19299512 86.3200701,8.70035779 86.8090827,7.91957411 C87.2980952,7.13879042 87.4481795,6.22477777 87.2593355,5.17753616 C87.0708656,4.19845821 86.6183988,3.32317491 85.9019353,2.55168627 C85.1854717,1.78019763 84.2852642,1.17137226 83.2013128,0.725210151 C82.1173615,0.279048045 80.9379066,0.055966992 79.6629483,0.055966992 C78.38799,0.055966992 77.291325,0.277498871 76.3729533,0.720562629 C75.4545815,1.16362639 74.7808201,1.77090259 74.351669,2.54239123 C73.9225178,3.31387987 73.7996745,4.19226151 73.9831391,5.17753616 C74.1769884,6.21858108 74.6610152,7.13104455 75.4352195,7.91492658 C76.2094238,8.69880862 77.1206207,9.19299512 78.1688101,9.39748608 L78.1930413,9.5276167 C77.4462162,9.65155061 76.8030138,9.93504945 76.2634341,10.3781132 C75.7238543,10.821177 75.3359275,11.3757813 75.0996537,12.0419261 C74.8633799,12.7080709 74.8190904,13.4377318 74.9667851,14.2309089 C75.1583268,15.2595604 75.6437959,16.1797698 76.4231926,16.9915369 C77.2025892,17.8033041 78.1886359,18.4431129 79.3813325,18.9109635 C80.5740291,19.378814 81.8817672,19.6127393 83.3045468,19.6127393 Z M81.1704732,8.1519502 C80.6407803,8.1519502 80.1494074,8.04350802 79.6963545,7.82662367 C79.2433015,7.60973931 78.8639801,7.30919956 78.5583901,6.92500441 C78.2528002,6.54080926 78.0532736,6.09774551 77.9598106,5.59581314 C77.8675014,5.10007747 77.9019277,4.66475958 78.0630895,4.28985947 C78.2242514,3.91495937 78.491262,3.62061632 78.8641213,3.40683031 C79.2369806,3.1930443 79.6913363,3.08615129 80.2271884,3.08615129 C80.7691996,3.08615129 81.2633637,3.1930443 81.7096805,3.40683031 C82.1559973,3.62061632 82.5310853,3.91495937 82.8349444,4.28985947 C83.1388036,4.66475958 83.3368878,5.10007747 83.429197,5.59581314 C83.5226601,6.09774551 83.4881363,6.54080926 83.3256256,6.92500441 C83.1631149,7.30919956 82.8957184,7.60973931 82.523436,7.82662367 C82.1511536,8.04350802 81.700166,8.1519502 81.1704732,8.1519502 Z M82.7541531,16.6569153 C82.1259128,16.6569153 81.5499481,16.5407273 81.0262591,16.3083512 C80.5025701,16.0759751 80.0699363,15.7537469 79.7283579,15.3416666 C79.3867794,14.9295864 79.1657971,14.4539899 79.0654108,13.9148774 C78.9627168,13.3633715 79.0088925,12.8753817 79.203938,12.450908 C79.3989835,12.0264343 79.7139269,11.6918127 80.1487683,11.4470433 C80.5836097,11.2022738 81.1059118,11.079889 81.7156744,11.079889 C82.3315963,11.079889 82.8994761,11.2022738 83.4193136,11.4470433 C83.9391511,11.6918127 84.3771722,12.0264343 84.7333768,12.450908 C85.0895814,12.8753817 85.3190307,13.3633715 85.4217247,13.9148774 C85.522111,14.4539899 85.4767071,14.9295864 85.2855131,15.3416666 C85.0943192,15.7537469 84.7832272,16.0759751 84.3522373,16.3083512 C83.9212474,16.5407273 83.3885526,16.6569153 82.7541531,16.6569153 Z M106.879769,19.3524781 L106.267066,16.0620325 L98.3216738,16.0620325 L98.2974427,15.9319019 L100.552729,13.2084541 C101.630782,12.0186885 102.447715,10.9977828 103.003528,10.1457371 C103.559341,9.29369142 103.912176,8.51755526 104.062034,7.81732862 C104.211891,7.11710198 104.219896,6.4075803 104.086048,5.68876358 C103.881813,4.5919484 103.420412,3.61906714 102.701844,2.7701198 C101.983275,1.92117246 101.075763,1.25657683 99.9793058,0.776332892 C98.8828489,0.296088959 97.6571064,0.055966992 96.3020783,0.055966992 C94.9840054,0.055966992 93.8666446,0.306933176 92.9499957,0.808865545 C92.0333469,1.31079791 91.3801641,2.0203196 90.9904472,2.93743059 C90.6007303,3.85454159 90.5218353,4.93586502 90.7537622,6.1814009 L94.5509207,6.1814009 C94.4378419,5.5741247 94.4573654,5.0505039 94.6094913,4.61053849 C94.7616172,4.17057308 95.0313294,3.83285315 95.4186279,3.59737871 C95.8059263,3.36190426 96.2890588,3.24416704 96.8680254,3.24416704 C97.4223551,3.24416704 97.9386533,3.35415839 98.4169201,3.5741411 C98.8951868,3.7941238 99.2983733,4.10705695 99.6264794,4.51294053 C99.9545856,4.91882411 100.170563,5.40061722 100.27441,5.95831985 C100.367874,6.46025222 100.353075,6.92655359 100.230014,7.35722395 C100.106954,7.78789432 99.8914072,8.22631055 99.5833751,8.67247266 C99.275343,9.11863476 98.8868472,9.62056713 98.4178877,10.1782698 L92.8510703,16.4524244 L93.3910792,19.3524781 L106.879769,19.3524781 Z M113.442373,0.31622822 L107.874559,12.8366523 L108.464761,16.0062623 L117.546,16.0064606 L118.169617,19.3524781 L121.994492,19.3524781 L121.370432,16.0064606 L123.718067,16.0062623 L123.11748,12.780882 L120.769923,12.7815017 L118.449818,0.31622822 L114.698854,0.31622822 L113.442373,0.31622822 Z M115.515193,4.70438125 L117.019205,12.7815017 L111.892304,12.780882 L111.864611,12.6321613 L115.367969,4.70348893 L115.515193,4.70438125 Z M129.042525,19.5941492 C129.442874,19.5941492 129.790597,19.4934529 130.085694,19.2920603 C130.380791,19.0906677 130.600064,18.8211114 130.743512,18.4833915 C130.88696,18.1456715 130.920607,17.7723206 130.844452,17.3633387 C130.731373,16.7560625 130.412717,16.23554 129.888482,15.8017713 C129.364248,15.3680026 128.806488,15.1511182 128.215203,15.1511182 C127.605441,15.1511182 127.123832,15.3680026 126.770378,15.8017713 C126.416923,16.23554 126.296736,16.7560625 126.409814,17.3633387 C126.524047,17.9768116 126.838949,18.5019816 127.354522,18.9388486 C127.870094,19.3757157 128.432762,19.5941492 129.042525,19.5941492 Z M140.268894,19.3524781 L136.724221,0.31622822 L132.964018,0.31622822 L128.835518,3.2999373 L129.500144,6.86923415 L133.3243,4.13649125 L133.435166,4.13649125 L136.268482,19.3524781 L140.268894,19.3524781 Z M153,19.3524781 L149.455326,0.31622822 L145.695123,0.31622822 L141.566623,3.2999373 L142.231249,6.86923415 L146.055405,4.13649125 L146.166271,4.13649125 L148.999587,19.3524781 L153,19.3524781 Z"/>
      </g>
    </g>
  </g>
</svg>
