<?xml version="1.0" encoding="UTF-8"?>
<svg width="1920px" height="867px" viewBox="0 0 1920 867" version="1.1" xmlns="http://www.w3.org/2000/svg" xmlns:xlink="http://www.w3.org/1999/xlink">
    <title>FCDE9714-539C-4159-8598-8C09C04A4A12@1x</title>
    <g id="Symbols" stroke="none" stroke-width="1" fill="none" fill-rule="evenodd">
        <g id="Footer">
            <rect id="background" fill="#0CCD9D" x="0" y="0" width="1920" height="867"></rect>
            <g id="Group" transform="translate(599.000000, 624.000000)" fill="#FFFFFF" opacity="0.1">
                <g id="logo/bamboo/dark">
                    <path d="M194,204.582001 C180.696181,208.194 166.787642,210 152.576744,210 C115.991241,210 80.6151752,196.756002 52.7980982,172.977004 C46.1461884,167.258005 40.0989978,160.937006 34.6565262,154.315007 C34.3541667,154.315007 34.3541667,154.014007 34.3541667,153.713007 L34.6565262,153.713007 C93.3142756,137.158009 155.902699,157.325006 194,204.582001 Z M8.13283664,10 C25.3123287,34.9932584 34.3541667,64.8044944 34.3541667,94.9168539 C34.3541667,111.478652 31.6416153,128.040449 26.2165125,144 C-0.607606698,104.552809 -7.23828785,55.1685393 8.13283664,10 Z M179.854167,6 C165.304167,93.737069 107.104167,136.564655 34.3541667,144 C46.1760417,67.862069 96.1916667,16.112069 179.854167,6 Z" id="Combined-Shape"></path>
                </g>
            </g>
            <g id="Group" transform="translate(1126.307213, 605.282260)" fill="#FFFFFF" opacity="0.1">
                <g id="logo/bamboo/dark-copy" transform="translate(114.000000, 126.000000) scale(-1, 1) rotate(-9.000000) translate(-114.000000, -126.000000) ">
                    <path d="M228,240.909646 C212.364583,245.163028 196.018466,247.28972 179.316998,247.28972 C136.319602,247.28972 94.743608,231.693983 62.0513731,203.692547 C54.2336648,196.958025 47.1266572,189.514605 40.7303504,181.716737 C40.375,181.716737 40.375,181.362288 40.375,181.00784 L40.7303504,181.00784 C109.668324,161.513169 183.225852,185.261222 228,240.909646 Z M9.55817915,11.7757009 C29.7485101,41.2070146 40.375,76.3118345 40.375,111.771249 C40.375,131.273926 37.187053,150.776604 30.811159,169.570093 C-0.714094469,123.118261 -8.50685377,64.964822 9.55817915,11.7757009 Z M211.375,7.06542056 C194.275,110.381969 125.875,160.814454 40.375,169.570093 C54.26875,79.9123429 113.05,18.9730906 211.375,7.06542056 Z" id="Combined-Shape"></path>
                </g>
            </g>
            <g id="Group" transform="translate(1126.568989, 45.373263)" fill="#FFFFFF" opacity="0.1">
                <g id="logo/bamboo/dark-copy-2" transform="translate(114.000000, 126.000000) rotate(-155.000000) translate(-114.000000, -126.000000) ">
                    <path d="M228,240.909646 C212.364583,245.163028 196.018466,247.28972 179.316998,247.28972 C136.319602,247.28972 94.743608,231.693983 62.0513731,203.692547 C54.2336648,196.958025 47.1266572,189.514605 40.7303504,181.716737 C40.375,181.716737 40.375,181.362288 40.375,181.00784 L40.7303504,181.00784 C109.668324,161.513169 183.225852,185.261222 228,240.909646 Z M9.55817915,11.7757009 C29.7485101,41.2070146 40.375,76.3118345 40.375,111.771249 C40.375,131.273926 37.187053,150.776604 30.811159,169.570093 C-0.714094469,123.118261 -8.50685377,64.964822 9.55817915,11.7757009 Z M211.375,7.06542056 C194.275,110.381969 125.875,160.814454 40.375,169.570093 C54.26875,79.9123429 113.05,18.9730906 211.375,7.06542056 Z" id="Combined-Shape"></path>
                </g>
            </g>
            <g id="Group" transform="translate(1823.568989, 254.373263)" fill="#FFFFFF" opacity="0.1">
                <g id="logo/bamboo/dark-copy-2" transform="translate(114.000000, 126.000000) rotate(-155.000000) translate(-114.000000, -126.000000) ">
                    <path d="M228,240.909646 C212.364583,245.163028 196.018466,247.28972 179.316998,247.28972 C136.319602,247.28972 94.743608,231.693983 62.0513731,203.692547 C54.2336648,196.958025 47.1266572,189.514605 40.7303504,181.716737 C40.375,181.716737 40.375,181.362288 40.375,181.00784 L40.7303504,181.00784 C109.668324,161.513169 183.225852,185.261222 228,240.909646 Z M9.55817915,11.7757009 C29.7485101,41.2070146 40.375,76.3118345 40.375,111.771249 C40.375,131.273926 37.187053,150.776604 30.811159,169.570093 C-0.714094469,123.118261 -8.50685377,64.964822 9.55817915,11.7757009 Z M211.375,7.06542056 C194.275,110.381969 125.875,160.814454 40.375,169.570093 C54.26875,79.9123429 113.05,18.9730906 211.375,7.06542056 Z" id="Combined-Shape"></path>
                </g>
            </g>
            <g id="Group" transform="translate(1424.000000, 267.000000)" fill="#FFFFFF" opacity="0.1">
                <g id="logo/bamboo/dark-copy-5" transform="translate(86.500000, 95.500000) rotate(-360.000000) translate(-86.500000, -95.500000) ">
                    <path d="M173,182.594216 C161.136285,185.81801 148.73331,187.429907 136.060705,187.429907 C103.435488,187.429907 71.8887902,175.609329 47.0828401,154.386018 C41.1509825,149.281677 35.7583846,143.640038 30.9050466,137.729749 C30.6354167,137.729749 30.6354167,137.461099 30.6354167,137.19245 L30.9050466,137.19245 C83.2132457,122.416727 139.026634,140.416244 173,182.594216 Z M7.25247804,8.92523364 C22.5723344,31.2323007 30.6354167,57.8395254 30.6354167,84.7155098 C30.6354167,99.4973013 28.216492,114.279093 23.3786426,128.523364 C-0.541834839,93.3158248 -6.45476185,49.2392103 7.25247804,8.92523364 Z M160.385417,5.35514019 C147.410417,83.6625242 95.5104167,121.887146 30.6354167,128.523364 C41.1776042,60.5684821 85.7791667,14.380398 160.385417,5.35514019 Z" id="Combined-Shape"></path>
                </g>
            </g>
            <g id="Group" transform="translate(1374.889115, 60.080355)" fill="#FFFFFF" opacity="0.1">
                <g id="logo/bamboo/dark-copy-9" transform="translate(77.000000, 85.000000) scale(-1, 1) rotate(-262.000000) translate(-77.000000, -85.000000) ">
                    <path d="M154,162.518412 C143.439236,165.387757 132.398437,166.82243 121.117622,166.82243 C92.0755208,166.82243 63.9934896,156.301497 41.9118924,137.411639 C36.6315104,132.868509 31.8311632,127.847154 27.5108507,122.586688 C27.2708333,122.586688 27.2708333,122.347575 27.2708333,122.108463 L27.5108507,122.108463 C74.0742187,108.957297 123.757812,124.977809 154,162.518412 Z M6.45596311,7.94392523 C20.0932919,27.7983829 27.2708333,51.4802058 27.2708333,75.4012391 C27.2708333,88.5578074 25.1175709,101.714376 20.811046,114.392523 C-0.482326966,83.0559698 -5.74585737,43.8254752 6.45596311,7.94392523 Z M142.770833,4.76635514 C131.220833,74.4640267 85.0208333,108.485941 27.2708333,114.392523 C36.6552083,53.9091202 76.3583333,12.7993071 142.770833,4.76635514 Z" id="Combined-Shape"></path>
                </g>
            </g>
            <g id="Group" transform="translate(1787.889115, -1.919645)" fill="#FFFFFF" opacity="0.1">
                <g id="logo/bamboo/dark-copy-9" transform="translate(77.000000, 85.000000) scale(-1, 1) rotate(-262.000000) translate(-77.000000, -85.000000) ">
                    <path d="M154,162.518412 C143.439236,165.387757 132.398437,166.82243 121.117622,166.82243 C92.0755208,166.82243 63.9934896,156.301497 41.9118924,137.411639 C36.6315104,132.868509 31.8311632,127.847154 27.5108507,122.586688 C27.2708333,122.586688 27.2708333,122.347575 27.2708333,122.108463 L27.5108507,122.108463 C74.0742187,108.957297 123.757812,124.977809 154,162.518412 Z M6.45596311,7.94392523 C20.0932919,27.7983829 27.2708333,51.4802058 27.2708333,75.4012391 C27.2708333,88.5578074 25.1175709,101.714376 20.811046,114.392523 C-0.482326966,83.0559698 -5.74585737,43.8254752 6.45596311,7.94392523 Z M142.770833,4.76635514 C131.220833,74.4640267 85.0208333,108.485941 27.2708333,114.392523 C36.6552083,53.9091202 76.3583333,12.7993071 142.770833,4.76635514 Z" id="Combined-Shape"></path>
                </g>
            </g>
            <g id="Group" transform="translate(1539.551094, -33.249401)" fill="#FFFFFF" opacity="0.1">
                <g id="logo/bamboo/dark-copy-12" transform="translate(97.000000, 107.000000) scale(-1, 1) rotate(-341.000000) translate(-97.000000, -107.000000) ">
                    <path d="M194,204.582001 C180.696181,208.194 166.787642,210 152.576744,210 C115.991241,210 80.6151752,196.756002 52.7980982,172.977004 C46.1461884,167.258005 40.0989978,160.937006 34.6565262,154.315007 C34.3541667,154.315007 34.3541667,154.014007 34.3541667,153.713007 L34.6565262,153.713007 C93.3142756,137.158009 155.902699,157.325006 194,204.582001 Z M8.13283664,10 C25.3123287,34.9932584 34.3541667,64.8044944 34.3541667,94.9168539 C34.3541667,111.478652 31.6416153,128.040449 26.2165125,144 C-0.607606698,104.552809 -7.23828785,55.1685393 8.13283664,10 Z M179.854167,6 C165.304167,93.737069 107.104167,136.564655 34.3541667,144 C46.1760417,67.862069 96.1916667,16.112069 179.854167,6 Z" id="Combined-Shape"></path>
                </g>
            </g>
            <g id="Group" transform="translate(1630.137914, 232.258557)" fill="#FFFFFF" opacity="0.1">
                <g id="logo/bamboo/dark-copy-13" transform="translate(72.500000, 80.000000) scale(-1, 1) rotate(-193.000000) translate(-72.500000, -80.000000) ">
                    <path d="M145,152.958505 C135.056424,155.659066 124.660866,157.009346 114.039319,157.009346 C86.6944839,157.009346 60.2536103,147.107291 39.4624961,129.328601 C34.4907079,125.052714 29.9709004,120.326733 25.9030737,115.375706 C25.6770833,115.375706 25.6770833,115.150659 25.6770833,114.925612 L25.9030737,114.925612 C69.745206,102.548044 116.525213,117.626173 145,152.958505 Z M6.07866656,7.47663551 C18.9190086,26.1631839 25.6770833,48.4519584 25.6770833,70.9658721 C25.6770833,83.3485246 23.6496609,95.7311772 19.5948161,107.663551 C-0.454139027,78.1703245 -5.41006051,41.247506 6.07866656,7.47663551 Z M134.427083,4.48598131 C123.552083,70.0837899 80.0520833,102.104415 25.6770833,107.663551 C34.5130208,50.7379955 71.8958333,12.0464067 134.427083,4.48598131 Z" id="Combined-Shape"></path>
                </g>
            </g>
            <g id="Group" transform="translate(1565.726896, 463.119201)" fill="#FFFFFF" opacity="0.1">
                <g id="logo/bamboo/dark-copy-4" transform="translate(114.000000, 126.000000) rotate(-210.000000) translate(-114.000000, -126.000000) ">
                    <path d="M228,240.909646 C212.364583,245.163028 196.018466,247.28972 179.316998,247.28972 C136.319602,247.28972 94.743608,231.693983 62.0513731,203.692547 C54.2336648,196.958025 47.1266572,189.514605 40.7303504,181.716737 C40.375,181.716737 40.375,181.362288 40.375,181.00784 L40.7303504,181.00784 C109.668324,161.513169 183.225852,185.261222 228,240.909646 Z M9.55817915,11.7757009 C29.7485101,41.2070146 40.375,76.3118345 40.375,111.771249 C40.375,131.273926 37.187053,150.776604 30.811159,169.570093 C-0.714094469,123.118261 -8.50685377,64.964822 9.55817915,11.7757009 Z M211.375,7.06542056 C194.275,110.381969 125.875,160.814454 40.375,169.570093 C54.26875,79.9123429 113.05,18.9730906 211.375,7.06542056 Z" id="Combined-Shape"></path>
                </g>
            </g>
            <g id="Group" transform="translate(1169.478339, 357.728855)" fill="#FFFFFF" opacity="0.1">
                <g id="logo/bamboo/dark-copy-8" transform="translate(95.000000, 104.500000) rotate(292.000000) translate(-95.000000, -104.500000) ">
                    <path d="M190,199.802047 C176.970486,203.329654 163.348722,205.093458 149.430832,205.093458 C113.599669,205.093458 78.9530066,192.158899 51.7094776,168.935486 C45.1947206,163.350108 39.2722143,157.176795 33.9419586,150.709516 C33.6458333,150.709516 33.6458333,150.415549 33.6458333,150.121581 L33.9419586,150.121581 C91.3902699,133.953382 152.68821,153.649188 190,199.802047 Z M7.96514929,9.76635514 C24.790425,34.1756589 33.6458333,63.2903707 33.6458333,92.6991704 C33.6458333,108.87401 30.9892108,125.04885 25.6759659,140.635514 C-0.595078724,102.109986 -7.0890448,53.8795548 7.96514929,9.76635514 Z M176.145833,5.85981308 C161.895833,91.5469505 104.895833,133.373892 33.6458333,140.635514 C45.2239583,66.2765066 94.2083333,15.7356188 176.145833,5.85981308 Z" id="Combined-Shape"></path>
                </g>
            </g>
            <g id="Group" transform="translate(1828.478339, 593.728855)" fill="#FFFFFF" opacity="0.1">
                <g id="logo/bamboo/dark-copy-8" transform="translate(95.000000, 104.500000) rotate(292.000000) translate(-95.000000, -104.500000) ">
                    <path d="M190,199.802047 C176.970486,203.329654 163.348722,205.093458 149.430832,205.093458 C113.599669,205.093458 78.9530066,192.158899 51.7094776,168.935486 C45.1947206,163.350108 39.2722143,157.176795 33.9419586,150.709516 C33.6458333,150.709516 33.6458333,150.415549 33.6458333,150.121581 L33.9419586,150.121581 C91.3902699,133.953382 152.68821,153.649188 190,199.802047 Z M7.96514929,9.76635514 C24.790425,34.1756589 33.6458333,63.2903707 33.6458333,92.6991704 C33.6458333,108.87401 30.9892108,125.04885 25.6759659,140.635514 C-0.595078724,102.109986 -7.0890448,53.8795548 7.96514929,9.76635514 Z M176.145833,5.85981308 C161.895833,91.5469505 104.895833,133.373892 33.6458333,140.635514 C45.2239583,66.2765066 94.2083333,15.7356188 176.145833,5.85981308 Z" id="Combined-Shape"></path>
                </g>
            </g>
            <g id="Group" transform="translate(919.000000, 312.000000)" fill="#FFFFFF" opacity="0.1">
                <g id="logo/bamboo/dark-copy-10">
                    <path d="M110,116.63086 C102.456597,118.690038 94.5703125,119.719626 86.5125868,119.719626 C65.7682292,119.719626 45.7096354,112.169309 29.937066,98.6130586 C26.1653646,95.3526945 22.7365451,91.7491342 19.6506076,87.9739757 C19.4791667,87.9739757 19.4791667,87.8023776 19.4791667,87.6307795 L19.6506076,87.6307795 C52.9101562,78.1928835 88.3984375,89.6899569 110,116.63086 Z M4.61140222,5.70093458 C14.3523513,19.9494277 19.4791667,36.9446183 19.4791667,54.1114775 C19.4791667,63.55325 17.9411221,72.9950226 14.8650329,82.0934579 C-0.344519261,59.6048724 -4.10418383,31.4512234 4.61140222,5.70093458 Z M101.979167,3.42056075 C93.7291667,53.4388898 60.7291667,77.8546165 19.4791667,82.0934579 C26.1822917,38.6877216 54.5416667,9.18538511 101.979167,3.42056075 Z" id="Combined-Shape"></path>
                </g>
            </g>
            <g id="Group" transform="translate(1388.000000, 535.000000)" fill="#FFFFFF" opacity="0.1">
                <g id="logo/bamboo/dark-copy-10">
                    <path d="M110,116.63086 C102.456597,118.690038 94.5703125,119.719626 86.5125868,119.719626 C65.7682292,119.719626 45.7096354,112.169309 29.937066,98.6130586 C26.1653646,95.3526945 22.7365451,91.7491342 19.6506076,87.9739757 C19.4791667,87.9739757 19.4791667,87.8023776 19.4791667,87.6307795 L19.6506076,87.6307795 C52.9101562,78.1928835 88.3984375,89.6899569 110,116.63086 Z M4.61140222,5.70093458 C14.3523513,19.9494277 19.4791667,36.9446183 19.4791667,54.1114775 C19.4791667,63.55325 17.9411221,72.9950226 14.8650329,82.0934579 C-0.344519261,59.6048724 -4.10418383,31.4512234 4.61140222,5.70093458 Z M101.979167,3.42056075 C93.7291667,53.4388898 60.7291667,77.8546165 19.4791667,82.0934579 C26.1822917,38.6877216 54.5416667,9.18538511 101.979167,3.42056075 Z" id="Combined-Shape"></path>
                </g>
            </g>
            <g id="Group" transform="translate(479.738808, 291.057743)" fill="#FFFFFF" opacity="0.1">
                <g id="logo/bamboo/dark-copy-3" transform="translate(135.500000, 150.000000) scale(1, -1) rotate(-265.000000) translate(-135.500000, -150.000000) ">
                    <path d="M271,286.797197 C252.415799,291.860748 232.986861,294.392523 213.135555,294.392523 C162.029001,294.392523 112.61192,275.82617 73.7540443,242.491128 C64.4619437,234.473839 56.0145794,225.612625 48.4119515,216.329449 C47.9895833,216.329449 47.9895833,215.907486 47.9895833,215.485523 L48.4119515,215.485523 C130.351385,192.277582 217.781605,220.549074 271,286.797197 Z M11.3608182,14.0186916 C35.3589747,49.0559698 47.9895833,90.847422 47.9895833,133.06101 C47.9895833,156.278484 44.2004007,179.495957 36.6220355,201.869159 C-0.848770181,146.569358 -10.1112165,77.3390738 11.3608182,14.0186916 Z M251.239583,8.41121495 C230.914583,131.407106 149.614583,191.445778 47.9895833,201.869159 C64.5036458,95.1337415 134.370833,22.5870126 251.239583,8.41121495 Z" id="Combined-Shape"></path>
                </g>
            </g>
            <g id="Group" transform="translate(-103.794194, 69.958855)" fill="#FFFFFF" opacity="0.1">
                <g id="logo/bamboo/dark-copy-22" transform="translate(135.500000, 150.000000) scale(1, -1) rotate(-195.000000) translate(-135.500000, -150.000000) ">
                    <path d="M271,286.797197 C252.415799,291.860748 232.986861,294.392523 213.135555,294.392523 C162.029001,294.392523 112.61192,275.82617 73.7540443,242.491128 C64.4619437,234.473839 56.0145794,225.612625 48.4119515,216.329449 C47.9895833,216.329449 47.9895833,215.907486 47.9895833,215.485523 L48.4119515,215.485523 C130.351385,192.277582 217.781605,220.549074 271,286.797197 Z M11.3608182,14.0186916 C35.3589747,49.0559698 47.9895833,90.847422 47.9895833,133.06101 C47.9895833,156.278484 44.2004007,179.495957 36.6220355,201.869159 C-0.848770181,146.569358 -10.1112165,77.3390738 11.3608182,14.0186916 Z M251.239583,8.41121495 C230.914583,131.407106 149.614583,191.445778 47.9895833,201.869159 C64.5036458,95.1337415 134.370833,22.5870126 251.239583,8.41121495 Z" id="Combined-Shape"></path>
                </g>
            </g>
            <g id="Group" transform="translate(-24.226094, 378.995731)" fill="#FFFFFF" opacity="0.1">
                <g id="logo/bamboo/dark-copy-7" transform="translate(103.000000, 114.000000) scale(-1, -1) rotate(-105.000000) translate(-103.000000, -114.000000) ">
                    <path d="M206,217.96587 C191.873264,221.814168 177.104403,223.738318 162.014481,223.738318 C123.165956,223.738318 85.6016809,209.62789 56.0639599,184.293257 C49.0005919,178.200118 42.5793482,171.465595 36.8002289,164.410381 C36.4791667,164.410381 36.4791667,164.089689 36.4791667,163.768998 L36.8002289,163.768998 C99.0862926,146.130963 165.546165,167.617296 206,217.96587 Z M8.6358987,10.6542056 C26.8780398,37.282537 36.4791667,69.0440407 36.4791667,101.126368 C36.4791667,118.771648 33.5988286,136.416927 27.8381525,153.420561 C-0.645190617,111.392712 -7.686017,58.7776961 8.6358987,10.6542056 Z M190.979167,6.39252336 C175.529167,99.8694006 113.729167,145.498791 36.4791667,153.420561 C49.0322917,72.3016436 102.141667,17.1661296 190.979167,6.39252336 Z" id="Combined-Shape"></path>
                </g>
            </g>
            <g id="Group" transform="translate(806.799503, 698.089280)" fill="#FFFFFF" opacity="0.1">
                <g id="logo/bamboo/dark-copy-14" transform="translate(45.500000, 50.000000) scale(-1, -1) rotate(-199.000000) translate(-45.500000, -50.000000) ">
                    <path d="M91,95.5990657 C84.7595486,97.286916 78.2354403,98.1308411 71.5695036,98.1308411 C54.4082623,98.1308411 37.8143348,91.9420568 24.7661182,80.8303759 C21.6458925,78.1579463 18.8093237,75.2042083 16.2564118,72.1098162 C16.1145833,72.1098162 16.1145833,71.969162 16.1145833,71.8285078 L16.2564118,71.8285078 C43.7711293,64.0925274 73.1296165,73.5163581 91,95.5990657 Z M3.81488729,4.6728972 C11.8733088,16.3519899 16.1145833,30.282474 16.1145833,44.3536701 C16.1145833,52.0928279 14.842201,59.8319857 12.2974363,67.2897196 C-0.285011389,48.8564528 -3.39527935,25.7796913 3.81488729,4.6728972 Z M84.3645833,2.80373832 C77.5395833,43.8023687 50.2395833,63.8152594 16.1145833,67.2897196 C21.6598958,31.7112472 45.1208333,7.52900419 84.3645833,2.80373832 Z" id="Combined-Shape"></path>
                </g>
            </g>
            <g id="Group" transform="translate(1007.819387, 695.869640)" fill="#FFFFFF" opacity="0.1">
                <g id="logo/bamboo/dark-copy-18" transform="translate(67.000000, 74.000000) scale(-1, -1) rotate(-285.000000) translate(-67.000000, -74.000000) ">
                    <path d="M134,141.486617 C124.810764,143.984636 115.203835,145.233645 105.38806,145.233645 C80.117661,145.233645 55.6826468,136.074244 36.4687895,119.628956 C31.8741714,115.673761 27.6972459,111.302228 23.9380129,106.722528 C23.7291667,106.722528 23.7291667,106.51436 23.7291667,106.306192 L23.9380129,106.306192 C64.4541903,94.8569406 107.685369,108.80421 134,141.486617 Z M5.61752634,6.91588785 C17.4837735,24.2009451 23.7291667,44.8180615 23.7291667,65.6434317 C23.7291667,77.0973853 21.8555487,88.5513389 18.1083128,99.588785 C-0.4196871,72.3075501 -4.99964213,38.1539431 5.61752634,6.91588785 Z M124.229167,4.14953271 C114.179167,64.8275056 73.9791667,94.446584 23.7291667,99.588785 C31.8947917,46.9326458 66.4416667,11.1429262 124.229167,4.14953271 Z" id="Combined-Shape"></path>
                </g>
            </g>
            <g id="Group" transform="translate(111.462258, 592.093986)" fill="#FFFFFF" opacity="0.1">
                <g id="logo/bamboo/dark-copy-20" transform="translate(104.500000, 116.000000) scale(-1, 1) rotate(-195.000000) translate(-104.500000, -116.000000) ">
                    <path d="M209,221.789832 C194.667535,225.705645 179.683594,227.663551 164.373915,227.663551 C124.959635,227.663551 86.8483073,213.305572 56.8804253,187.526472 C49.7141927,181.326435 43.1994358,174.473763 37.3361545,167.294774 C37.0104167,167.294774 37.0104167,166.968456 37.0104167,166.642138 L37.3361545,166.642138 C100.529297,148.694664 167.957031,170.557951 209,221.789832 Z M8.76166422,10.8411215 C27.2694675,37.9366166 37.0104167,70.2553397 37.0104167,102.900515 C37.0104167,120.855361 34.0881319,138.810207 28.2435625,156.11215 C-0.654586597,113.34697 -7.79794928,59.8088838 8.76166422,10.8411215 Z M193.760417,6.5046729 C178.085417,101.621495 115.385417,148.051402 37.0104167,156.11215 C49.7463542,73.5700935 103.629167,17.4672897 193.760417,6.5046729 Z" id="Combined-Shape"></path>
                </g>
            </g>
            <g id="Group" transform="translate(571.272012, -1.646282)" fill="#FFFFFF" opacity="0.1">
                <g id="logo/bamboo/dark-copy-11" transform="translate(110.500000, 122.500000) scale(-1, 1) rotate(204.000000) translate(-110.500000, -122.500000) ">
                    <path d="M221,234.217711 C205.844618,238.352944 190.000355,240.420561 173.811652,240.420561 C132.134351,240.420561 91.834813,225.258039 60.1462871,198.034421 C52.5685961,191.486968 45.6797861,184.25031 39.4798572,176.66905 C39.1354167,176.66905 39.1354167,176.324447 39.1354167,175.979844 L39.4798572,175.979844 C106.301314,157.026692 177.600497,180.115077 221,234.217711 Z M9.26472628,11.4485981 C28.8351786,40.0623753 39.1354167,74.1920613 39.1354167,108.666492 C39.1354167,127.627428 36.0453452,146.588365 29.8652024,164.859813 C-0.692170516,119.698309 -8.24567843,63.1602436 9.26472628,11.4485981 Z M204.885417,6.86915888 C188.310417,107.315803 122.010417,156.347386 39.1354167,164.859813 C52.6026042,77.6925556 109.579167,18.4460603 204.885417,6.86915888 Z" id="Combined-Shape"></path>
                </g>
            </g>
            <g id="Group" transform="translate(338.535217, 62.751380)" fill="#FFFFFF" opacity="0.1">
                <g id="logo/bamboo/dark-copy-15" transform="translate(104.500000, 116.000000) scale(-1, 1) rotate(314.000000) translate(-104.500000, -116.000000) ">
                    <path d="M209,221.789832 C194.667535,225.705645 179.683594,227.663551 164.373915,227.663551 C124.959635,227.663551 86.8483073,213.305572 56.8804253,187.526472 C49.7141927,181.326435 43.1994358,174.473763 37.3361545,167.294774 C37.0104167,167.294774 37.0104167,166.968456 37.0104167,166.642138 L37.3361545,166.642138 C100.529297,148.694664 167.957031,170.557951 209,221.789832 Z M8.76166422,10.8411215 C27.2694675,37.9366166 37.0104167,70.2553397 37.0104167,102.900515 C37.0104167,120.855361 34.0881319,138.810207 28.2435625,156.11215 C-0.654586597,113.34697 -7.79794928,59.8088838 8.76166422,10.8411215 Z M193.760417,6.5046729 C178.085417,101.621495 115.385417,148.051402 37.0104167,156.11215 C49.7463542,73.5700935 103.629167,17.4672897 193.760417,6.5046729 Z" id="Combined-Shape"></path>
                </g>
            </g>
            <g id="Group" transform="translate(373.670338, 533.004210)" fill="#FFFFFF" opacity="0.1">
                <g id="logo/bamboo/dark-copy-16" transform="translate(80.000000, 89.000000) scale(-1, 1) rotate(228.000000) translate(-80.000000, -89.000000) ">
                    <path d="M160,170.166337 C149.027778,173.17071 137.556818,174.672897 125.83649,174.672897 C95.6628788,174.672897 66.4867424,163.656861 43.5448232,143.878069 C38.0587121,139.121144 33.0713384,133.863491 28.582702,128.355473 C28.3333333,128.355473 28.3333333,128.105108 28.3333333,127.854744 L28.582702,127.854744 C76.9602273,114.084699 128.579545,130.859117 160,170.166337 Z M6.70749414,8.31775701 C20.8761474,29.1065421 28.3333333,53.9028037 28.3333333,78.9495327 C28.3333333,92.7252336 26.0961776,106.500935 21.621866,119.775701 C-0.501118926,86.964486 -5.96972194,45.8878505 6.70749414,8.31775701 Z M148.333333,4.99065421 C136.333333,77.9682162 88.3333333,113.591162 28.3333333,119.775701 C38.0833333,56.44602 79.3333333,13.4016275 148.333333,4.99065421 Z" id="Combined-Shape"></path>
                </g>
            </g>
            <g id="Group" transform="translate(173.405382, 4.578391)" fill="#FFFFFF" opacity="0.1">
                <g id="logo/bamboo/dark-copy-19" transform="translate(69.000000, 77.000000) scale(-1, 1) rotate(256.000000) translate(-69.000000, -77.000000) ">
                    <path d="M138,147.222561 C128.536458,149.821851 118.642756,151.121495 108.533973,151.121495 C82.509233,151.121495 57.3448153,141.590767 37.55741,124.478779 C32.8256392,120.363237 28.5240294,115.814481 24.6525805,111.049117 C24.4375,111.049117 24.4375,110.832509 24.4375,110.615902 L24.6525805,110.615902 C66.378196,98.7024922 110.899858,113.215191 138,147.222561 Z M5.78521369,7.19626168 C18.0056771,25.1820645 24.4375,46.63501 24.4375,68.3046519 C24.4375,80.222955 22.5079531,92.141258 18.6488594,103.626168 C-0.432215074,75.2389373 -5.14888517,39.7007246 5.78521369,7.19626168 Z M127.9375,4.31775701 C117.5875,67.4556478 76.1875,98.2754995 24.4375,103.626168 C32.846875,48.8353207 68.425,11.5946665 127.9375,4.31775701 Z" id="Combined-Shape"></path>
                </g>
            </g>
            <g id="Group" transform="translate(209.123962, 326.383819)" fill="#FFFFFF" opacity="0.1">
                <g id="logo/bamboo/dark-copy-17" transform="translate(89.000000, 99.000000) scale(-1, 1) rotate(228.000000) translate(-89.000000, -99.000000) ">
                    <path d="M178,189.28615 C165.793403,192.628094 153.03196,194.299065 139.993095,194.299065 C106.424953,194.299065 73.9665009,182.045272 48.4436158,160.044144 C42.3403172,154.752734 36.791864,148.904333 31.798256,142.777436 C31.5208333,142.777436 31.5208333,142.498941 31.5208333,142.220445 L31.798256,142.220445 C85.6182528,126.903204 143.044744,145.562389 178,189.28615 Z M7.46208723,9.25233645 C23.224714,32.37694 31.5208333,59.9592985 31.5208333,87.8202667 C31.5208333,103.143799 29.0319975,118.467332 24.0543259,133.233645 C-0.557494805,96.7357765 -6.64131566,51.0437887 7.46208723,9.25233645 Z M165.020833,5.55140187 C151.670833,86.72869 98.2708333,126.354214 31.5208333,133.233645 C42.3677083,62.7882694 88.2583333,14.9074283 165.020833,5.55140187 Z" id="Combined-Shape"></path>
                </g>
            </g>
            <g id="Group" transform="translate(-51.000000, 688.000000)" fill="#FFFFFF" opacity="0.1">
                <g id="logo/bamboo/dark-copy-10">
                    <path d="M110,116.63086 C102.456597,118.690038 94.5703125,119.719626 86.5125868,119.719626 C65.7682292,119.719626 45.7096354,112.169309 29.937066,98.6130586 C26.1653646,95.3526945 22.7365451,91.7491342 19.6506076,87.9739757 C19.4791667,87.9739757 19.4791667,87.8023776 19.4791667,87.6307795 L19.6506076,87.6307795 C52.9101562,78.1928835 88.3984375,89.6899569 110,116.63086 Z M4.61140222,5.70093458 C14.3523513,19.9494277 19.4791667,36.9446183 19.4791667,54.1114775 C19.4791667,63.55325 17.9411221,72.9950226 14.8650329,82.0934579 C-0.344519261,59.6048724 -4.10418383,31.4512234 4.61140222,5.70093458 Z M101.979167,3.42056075 C93.7291667,53.4388898 60.7291667,77.8546165 19.4791667,82.0934579 C26.1822917,38.6877216 54.5416667,9.18538511 101.979167,3.42056075 Z" id="Combined-Shape"></path>
                </g>
            </g>
            <g id="Group" transform="translate(920.000000, -14.000000)" fill="#FFFFFF" opacity="0.1">
                <g id="logo/bamboo/dark-copy-2" transform="translate(49.000000, 54.000000) rotate(-180.000000) translate(-49.000000, -54.000000) ">
                    <path d="M98,103.246991 C91.2795139,105.069869 84.2535511,105.981308 77.0748501,105.981308 C58.5935133,105.981308 40.7231297,99.2974214 26.6712042,87.296806 C23.3109612,84.410582 20.2561948,81.220545 17.506905,77.8786015 C17.3541667,77.8786015 17.3541667,77.726695 17.3541667,77.5747884 L17.506905,77.5747884 C47.1381392,69.2199296 78.7549716,79.3976667 98,103.246991 Z M4.10834016,5.04672897 C12.7866403,17.6601491 17.3541667,32.7050719 17.3541667,47.9019637 C17.3541667,56.2602541 15.9839088,64.6185446 13.2433929,72.6728972 C-0.306935342,52.764969 -3.65645469,27.8420666 4.10834016,5.04672897 Z M90.8541667,3.02803738 C83.5041667,47.3065582 54.1041667,68.9204802 17.3541667,72.6728972 C23.3260417,34.248147 48.5916667,8.13132452 90.8541667,3.02803738 Z" id="Combined-Shape"></path>
                </g>
            </g>
        </g>
    </g>
</svg>