<svg xmlns="http://www.w3.org/2000/svg" width="141" height="40" viewBox="0 0 141 40">
  <g fill="none">
    <path fill="#0CCD9D" d="M140.811594,38.4347826 C138.26087,39.1304348 135.594203,39.4782609 132.869565,39.4782609 C125.855072,39.4782609 119.072464,36.9275362 113.73913,32.3478261 C112.463768,31.2463768 111.304348,30.0289855 110.26087,28.7536232 C110.202899,28.7536232 110.202899,28.6956522 110.202899,28.6376812 L110.26087,28.6376812 C121.507246,25.4492754 133.507246,29.3333333 140.811594,38.4347826 Z M138.086957,0 C135.304348,17.1014493 124.173913,25.4492754 110.26087,26.8985507 C112.521739,12.057971 122.086957,1.97101449 138.086957,0 Z M105.15942,0.869565217 C108.463768,5.68115942 110.202899,11.4202899 110.202899,17.2173913 C110.202899,20.4057971 109.681159,23.5942029 108.637681,26.6666667 C103.478261,19.0724638 102.202899,9.56521739 105.15942,0.869565217 Z"/>
    <path fill="#232323" d="M102.666667,35.7681159 C103.536232,34.8405797 104,33.5652174 103.942029,32.2898551 C104,31.0144928 103.594203,29.7391304 102.724638,28.8115942 C101.971014,28 100.869565,27.5362319 99.7681159,27.5362319 C98.6666667,27.4782609 97.5652174,27.942029 96.8115942,28.7536232 C96,29.7391304 95.5942029,30.9565217 95.6521739,32.2318841 C95.5942029,33.5072464 96,34.7246377 96.8115942,35.7101449 C97.5652174,36.5217391 98.6086957,36.9855072 99.7101449,36.9855072 C100.811594,36.9855072 101.913043,36.5797101 102.666667,35.7681159 Z M99.7101449,39.4782609 C97.8550725,39.5362319 96,38.8405797 94.7246377,37.5072464 C93.3913043,36.115942 92.6376812,34.2028986 92.7536232,32.2898551 C92.5797101,28.5217391 95.5362319,25.2753623 99.3043478,25.1014493 C99.4782609,25.1014493 99.6521739,25.1014493 99.826087,25.1014493 C103.594203,24.9855072 106.782609,27.942029 106.898551,31.7101449 C106.898551,31.884058 106.898551,32.057971 106.898551,32.2318841 C106.956522,34.2028986 106.202899,36.115942 104.811594,37.4492754 C103.478261,38.7826087 101.623188,39.4782609 99.7101449,39.4782609 Z M86.6086957,35.7681159 C87.4782609,34.8405797 87.942029,33.5652174 87.884058,32.2898551 C87.942029,31.0144928 87.5362319,29.7391304 86.6666667,28.8115942 C85.9130435,28 84.8115942,27.5362319 83.7101449,27.5362319 C82.6086957,27.5362319 81.5652174,28 80.8115942,28.8115942 C80,29.7971014 79.5942029,31.0144928 79.6521739,32.2898551 C79.5942029,33.5652174 80,34.7826087 80.8115942,35.7681159 C81.5652174,36.5797101 82.6086957,37.0434783 83.7101449,37.0434783 C84.7536232,36.9855072 85.8550725,36.5797101 86.6086957,35.7681159 Z M83.5942029,39.4782609 C81.7391304,39.5362319 79.884058,38.8405797 78.6086957,37.5072464 C77.2753623,36.115942 76.5797101,34.2028986 76.6376812,32.2898551 C76.5217391,28.3478261 79.5942029,25.1014493 83.5362319,24.9855072 C87.4782609,24.8695652 90.7246377,27.942029 90.8405797,31.884058 C90.8405797,32 90.8405797,32.173913 90.8405797,32.2898551 C90.8985507,34.2608696 90.1449275,36.173913 88.7536232,37.5072464 C87.3623188,38.7826087 85.5072464,39.4782609 83.5942029,39.4782609 Z M70.4927536,35.6521739 C71.3623188,34.7246377 71.826087,33.5072464 71.7681159,32.2318841 C71.826087,30.9565217 71.3623188,29.7391304 70.4927536,28.8695652 C69.7391304,28.057971 68.6376812,27.6521739 67.5362319,27.6521739 C66.4347826,27.6521739 65.3333333,28.115942 64.5797101,28.9275362 C63.7101449,29.8550725 63.2463768,31.0724638 63.3043478,32.2898551 C63.2463768,33.5652174 63.7101449,34.7826087 64.5797101,35.7101449 C66.1449275,37.3333333 68.7536232,37.4492754 70.3768116,35.884058 C70.4347826,35.7681159 70.4927536,35.7101449 70.4927536,35.6521739 L70.4927536,35.6521739 Z M68.173913,25.1014493 C69.9710145,25.0434783 71.6521739,25.7971014 72.8695652,27.0724638 C74.1449275,28.4637681 74.8405797,30.3188406 74.7246377,32.2318841 C74.7826087,34.1449275 74.1449275,36 72.8695652,37.4492754 C71.7101449,38.7826087 69.9710145,39.4782609 68.2318841,39.4782609 C67.1884058,39.4782609 66.2028986,39.2463768 65.3333333,38.7246377 C64.5217391,38.2028986 63.826087,37.5072464 63.3623188,36.6956522 L63.3623188,39.3043478 L60.5217391,39.3043478 L60.5217391,20.5797101 L63.4202899,20.5797101 L63.4202899,27.826087 C63.884058,27.0144928 64.5797101,26.3188406 65.3913043,25.8550725 C66.2028986,25.3913043 67.1884058,25.1014493 68.173913,25.1014493 L68.173913,25.1014493 Z M37.1014493,25.3333333 L37.1014493,27.5362319 C38.0289855,25.9130435 39.4782609,25.1014493 41.5652174,25.1014493 C42.6086957,25.1014493 43.5942029,25.3333333 44.4637681,25.8550725 C45.3333333,26.3768116 45.9710145,27.1304348 46.3768116,28.057971 C46.8405797,27.1884058 47.5362319,26.4347826 48.4057971,25.9130435 C49.2753623,25.3913043 50.3188406,25.1014493 51.3623188,25.1594203 C52.8115942,25.1014493 54.2608696,25.6811594 55.3043478,26.7246377 C56.3478261,27.7681159 56.8695652,29.2173913 56.8695652,31.0724638 L56.8695652,39.2463768 L53.9710145,39.2463768 L53.9710145,31.4782609 C54.0289855,30.4347826 53.6811594,29.3913043 53.0434783,28.6376812 C51.5942029,27.3043478 49.3913043,27.3043478 47.942029,28.6376812 C47.3043478,29.4492754 46.9565217,30.4347826 47.0144928,31.4782609 L47.0144928,39.2463768 L44.173913,39.2463768 L44.173913,31.4782609 C44.2318841,30.4347826 43.884058,29.3913043 43.2463768,28.6376812 C42.5507246,27.942029 41.6231884,27.5942029 40.6956522,27.6521739 C39.7681159,27.5942029 38.7826087,27.942029 38.1449275,28.6376812 C37.4492754,29.4492754 37.1594203,30.4347826 37.2173913,31.4782609 L37.2173913,39.2463768 L34.3188406,39.2463768 L34.3188406,25.3333333 L37.1014493,25.3333333 Z M26.2608696,35.6521739 C27.1304348,34.7246377 27.5942029,33.5072464 27.5362319,32.2318841 C27.5942029,30.9565217 27.1304348,29.7391304 26.2608696,28.8115942 C24.6376812,27.1884058 22.0289855,27.1304348 20.4057971,28.6956522 L20.3478261,28.7536232 C19.4782609,29.6811594 19.0724638,30.8985507 19.1304348,32.115942 C19.0724638,33.3913043 19.5362319,34.6086957 20.4057971,35.5362319 C21.9130435,37.1594203 24.5217391,37.2753623 26.1449275,35.7101449 C26.2028986,35.7681159 26.2608696,35.7101449 26.2608696,35.6521739 L26.2608696,35.6521739 Z M18.0289855,37.4492754 C16.7536232,36.057971 16.057971,34.1449275 16.115942,32.2318841 C16.057971,30.3188406 16.6956522,28.4637681 18.0289855,27.0724638 C19.2463768,25.7971014 20.9275362,25.0434783 22.7246377,25.1014493 C23.7681159,25.1014493 24.7536232,25.3333333 25.6231884,25.8550725 C26.4347826,26.3188406 27.0724638,27.0144928 27.5362319,27.826087 L27.5362319,25.3333333 L30.4347826,25.3333333 L30.4347826,39.1884058 L27.5362319,39.1884058 L27.5362319,36.5797101 C27.0724638,37.4492754 26.4347826,38.1449275 25.6231884,38.6666667 C24.7536232,39.1884058 23.7681159,39.4782609 22.7246377,39.4202899 C20.9275362,39.4782609 19.2463768,38.7246377 18.0289855,37.4492754 L18.0289855,37.4492754 Z M10.0869565,35.7101449 C10.9565217,34.7826087 11.4202899,33.5652174 11.3623188,32.2898551 C11.4202899,31.0144928 10.9565217,29.7971014 10.0869565,28.9275362 C9.33333333,28.115942 8.23188406,27.6521739 7.13043478,27.7101449 C6.02898551,27.7101449 4.92753623,28.115942 4.17391304,28.9275362 C3.30434783,29.8550725 2.89855072,31.0724638 2.95652174,32.3478261 C2.89855072,33.6231884 3.36231884,34.8405797 4.23188406,35.7681159 C5.73913043,37.3913043 8.34782609,37.5072464 9.97101449,36 C9.97101449,35.826087 10.0289855,35.7681159 10.0869565,35.7101449 L10.0869565,35.7101449 Z M7.71014493,25.1014493 C9.50724638,25.0434783 11.1884058,25.7971014 12.4057971,27.0724638 C13.6811594,28.4637681 14.3768116,30.3188406 14.2608696,32.2318841 C14.3188406,34.1449275 13.6811594,36 12.4057971,37.3913043 C11.2463768,38.7246377 9.50724638,39.4202899 7.76811594,39.4202899 C6.72463768,39.4202899 5.73913043,39.1884058 4.86956522,38.6666667 C4.05797101,38.1449275 3.36231884,37.4492754 2.89855072,36.6376812 L2.89855072,39.2463768 L0,39.2463768 L0,20.5797101 L2.89855072,20.5797101 L2.89855072,27.826087 C3.36231884,27.0144928 4.05797101,26.3188406 4.86956522,25.8550725 C5.73913043,25.3913043 6.72463768,25.1014493 7.71014493,25.1014493 Z"/>
  </g>
</svg>
